<?xml version="1.0" encoding="UTF-8" standalone="no"?><!DOCTYPE svg PUBLIC "-//W3C//DTD SVG 1.1//EN" "http://www.w3.org/Graphics/SVG/1.1/DTD/svg11.dtd"><svg width="23px" height="23px" version="1.1" xmlns="http://www.w3.org/2000/svg" xmlns:xlink="http://www.w3.org/1999/xlink" xml:space="preserve" style="fill-rule:evenodd;clip-rule:evenodd;stroke-linejoin:round;stroke-miterlimit:1.41421;"><rect id="announcement.-read" x="0.2" y="0.5" width="22" height="22" style="fill:none;"/><path d="M7.061,21.028c-0.772,0.07 -1.515,-0.321 -1.939,-0.817c-0.984,-1.147 -0.408,-2.848 -0.116,-4.148c0.311,-1.389 0.66,-2.773 0.957,-4.163c0.295,-1.386 0.54,-2.781 0.642,-4.18c0.082,-1.117 0.139,-2.356 -0.61,-3.317c-0.211,-0.272 -0.514,-0.527 -0.888,-0.644c0.037,-0.004 3.341,-0.724 3.341,-0.724l5.047,-0.956c0,0 1.504,-0.247 2.179,-0.346c0.371,-0.054 1.376,0.025 1.676,0.234c1.536,2.089 1.544,4.663 1.222,7.072c-0.172,1.287 -0.432,2.569 -0.779,3.838c-0.325,1.184 -0.892,2.379 -0.975,3.588c-1.486,0.194 -2.97,0.404 -4.456,0.604c-0.346,0.047 -3.715,0.476 -4.992,0.695c-0.088,-0.004 -0.18,-0.001 -0.276,0.011c-1.073,0.126 -1.382,1.304 -0.485,1.782c0.238,0.127 0.552,0.127 0.808,0.004c0.304,-0.036 0.575,-0.127 0.878,-0.179c0.014,0.001 0.196,-0.006 0.301,-0.027c0.007,-0.001 0.094,-0.025 0.094,-0.019c-0.044,0.581 -0.456,1.324 -1.111,1.579c-0.15,0.027 -0.361,0.081 -0.51,0.112c-0.004,0.001 -0.007,0.001 -0.008,0.001Z" style="fill:url(#_Linear1);"/><path d="M7.041,20.837l0.008,-0.001c0.009,-0.013 -0.014,-0.001 -0.008,0.001Z" style="fill:#e8d29c;"/><path d="M18.012,16.379c0.938,-0.009 1.448,0.998 1.383,1.653c-0.063,0.655 -0.547,1.083 -1.152,1.473c-0.014,0.01 -0.023,0.02 -0.03,0.031c-0.105,0.014 -10.035,1.286 -10.209,1.314c0.451,-0.342 0.73,-0.85 0.768,-1.363c0.048,-0.657 -0.348,-1.471 -1.072,-1.73c0.182,-0.02 10.302,-1.35 10.312,-1.378Z" style="fill:#fff;"/><path d="M8.542,18.576c0.111,0.208 0.1,0.529 0.111,0.746c-0.01,-0.001 -0.021,-0.001 -0.034,0.001c-0.076,0.015 -0.962,0.183 -1.061,0.2c0.008,-0.008 -0.012,-0.105 -0.005,-0.115c0.157,-0.195 0.11,-0.454 -0.066,-0.601c0.131,-0.02 0.281,-0.065 0.411,-0.087c0.173,-0.027 0.327,0.034 0.482,-0.041c0.027,-0.014 0.06,-0.031 0.05,-0.053c-0.009,-0.016 -0.015,0.025 -0.037,0.024c-0.193,-0.017 -0.393,0.051 -0.582,0.089c-0.145,0.03 -0.29,0.061 -0.436,0.092c-0.01,-0.004 -0.02,-0.009 -0.03,-0.013c-0.042,-0.014 -0.075,0.009 -0.084,0.037c-0.009,0.002 -0.018,0.004 -0.027,0.005c-0.069,0.015 0.113,-0.027 0.182,-0.038c0.031,-0.005 -0.008,0.043 0.023,0.038c0.507,0.266 -0.245,0.835 -0.686,0.683c-0.27,-0.094 -0.437,-0.342 -0.485,-0.57c-0.101,-0.471 0.241,-1.031 0.843,-1.113c0.656,-0.088 1.193,0.269 1.431,0.716Z" style="fill:#605c54;"/><path d="M6.064,4.736c-0.414,-0.012 -0.816,0.111 -1.2,0.271c-0.184,-0.021 -0.307,-0.021 -0.465,0.087c-0.301,0.206 -0.301,0.436 0.006,0.607c0.165,0.092 0.074,0.037 0.111,0.026c0.113,-0.005 0.191,-0.063 0.279,-0.078c0.17,-0.03 0.349,-0.028 0.518,-0.062c0.009,0.166 -0.053,0.417 -0.134,0.561c-0.266,0.483 -0.875,0.628 -1.337,0.268c-0.683,-0.534 -0.79,-1.661 -0.071,-2.255c0.888,-0.733 1.825,-0.078 2.293,0.575Z" style="fill:#605c54;"/><path d="M6.225,5.077c0.158,0.346 0.223,0.768 0.166,1.108c-0.085,0.001 -1.211,0.221 -1.293,0.251c0.285,-0.346 0.503,-0.841 0.236,-1.155c-0.067,-0.077 -0.262,-0.199 -0.367,-0.246c0.279,-0.073 0.6,-0.165 0.901,-0.212c0.237,-0.036 0.146,-0.02 0.157,-0.037c0.05,0.08 0.165,0.214 0.2,0.291Z" style="fill:#6d6b66;"/><path d="M5.316,5.48c0.007,0.016 -0.091,0.064 -0.086,0.08c-0.17,0.034 -0.34,0.071 -0.51,0.109c-0.016,0.004 -0.109,0.019 -0.195,0.041c-0.006,-0.006 -0.092,-0.035 -0.102,-0.04c-0.347,-0.19 0.073,-0.567 0.364,-0.578c0.173,-0.006 0.484,0.294 0.529,0.388Z" style="fill:#302f2d;"/><path id="path4771" d="M5.229,5.433c0.007,0.016 0.012,0.032 0.017,0.048c-0.171,0.034 -0.34,0.072 -0.51,0.109c-0.016,0.004 -0.109,0.019 -0.196,0.041c-0.006,-0.006 -0.013,-0.011 -0.022,-0.017c-0.347,-0.189 0.001,-0.472 0.292,-0.482c0.173,-0.006 0.374,0.207 0.419,0.301m0.719,-0.73c-0.379,-0.013 -0.767,0.087 -1.116,0.238c-0.168,-0.02 -0.344,0.008 -0.488,0.111c-0.274,0.195 -0.263,0.559 0.022,0.714c0.036,0.02 0.075,0.021 0.109,0.01c0.104,-0.004 0.253,-0.051 0.334,-0.065c0.155,-0.027 0.31,-0.055 0.464,-0.087c0.009,0.159 -0.04,0.33 -0.112,0.467c-0.241,0.46 -0.796,0.595 -1.219,0.25c-0.626,-0.512 -0.727,-1.588 -0.074,-2.151c0.807,-0.695 1.65,-0.112 2.08,0.513m0.182,0.319c0.158,0.346 0.239,0.713 0.277,1.084c-0.085,0.001 -1.078,0.222 -1.159,0.251c0.285,-0.346 0.368,-0.841 0.102,-1.155c-0.067,-0.077 -0.16,-0.144 -0.265,-0.19c0.279,-0.074 0.563,-0.127 0.862,-0.189c0.024,-0.005 0.043,-0.02 0.055,-0.037c0.049,0.08 0.093,0.159 0.128,0.236m2.356,13.567c0.111,0.208 0.172,0.437 0.182,0.654c-0.009,-0.001 -0.02,-0.001 -0.033,0.001c-0.077,0.015 -0.946,0.197 -1.044,0.214c0.008,-0.008 -0.001,-0.03 0.006,-0.039c0.157,-0.196 0.114,-0.434 -0.061,-0.581c0.13,-0.02 0.26,-0.041 0.391,-0.062c0.173,-0.028 0.351,-0.038 0.506,-0.113c0.027,-0.014 0.032,-0.04 0.021,-0.062c-0.008,-0.015 -0.024,-0.029 -0.046,-0.03c-0.193,-0.017 -0.393,0.052 -0.581,0.09c-0.146,0.029 -0.29,0.06 -0.436,0.091c-0.01,-0.004 -0.02,-0.008 -0.03,-0.013c-0.042,-0.014 -0.076,0.009 -0.085,0.037c-0.008,0.002 -0.018,0.004 -0.026,0.006c-0.069,0.015 -0.042,0.108 0.027,0.098c0.031,-0.005 0.063,-0.01 0.094,-0.015c0.507,0.265 -0.161,0.752 -0.603,0.599c-0.27,-0.093 -0.436,-0.342 -0.485,-0.57c-0.1,-0.471 0.244,-0.931 0.846,-1.012c0.657,-0.089 1.119,0.26 1.357,0.707m9.396,-2.197c0.913,-0.008 1.409,0.969 1.346,1.605c-0.062,0.636 -0.533,1.052 -1.122,1.431c-0.014,0.009 -0.022,0.019 -0.029,0.03c-0.103,0.013 -9.767,1.251 -9.937,1.278c0.439,-0.332 0.711,-0.826 0.748,-1.324c0.047,-0.637 -0.333,-1.375 -1.037,-1.626c0.177,-0.019 10.021,-1.366 10.031,-1.394m-0.509,-14.429c1.535,2.079 1.542,4.643 1.219,7.042c-0.172,1.281 -0.433,2.559 -0.781,3.822c-0.325,1.18 -0.892,2.37 -0.976,3.574c-1.486,0.194 -2.97,0.403 -4.455,0.603c-0.347,0.047 -3.716,0.475 -4.993,0.694c-0.088,-0.003 -0.18,0 -0.276,0.012c-1.073,0.126 -1.462,1.378 -0.565,1.854c0.238,0.126 0.584,0.142 0.839,0.02c0.305,-0.037 0.962,-0.144 1.265,-0.196c0.013,0.002 -0.106,0.021 0,0c0.006,-0.001 0.174,0.353 0.18,0.35c0,0.006 -0.162,-0.344 -0.163,-0.339c-0.044,0.579 -0.417,1.183 -1.072,1.438c-0.151,0.027 -0.361,0.081 -0.51,0.111c-0.026,0.005 0.01,-0.015 0,0c-0.776,0.074 -1.521,-0.316 -1.947,-0.811c-0.983,-1.143 -0.407,-2.837 -0.114,-4.131c0.311,-1.383 0.661,-2.762 0.958,-4.146c0.296,-1.381 0.542,-2.77 0.644,-4.164c0.082,-1.112 0.14,-2.346 -0.608,-3.302c-0.212,-0.271 -0.514,-0.526 -0.888,-0.642c0.037,-0.003 3.341,-0.722 3.341,-0.722l5.048,-0.954c0,0 1.504,-0.247 2.179,-0.346c0.37,-0.054 1.376,0.024 1.675,0.233m1.503,6.619c0.266,-2.312 0.165,-4.746 -1.316,-6.735c-0.032,-0.041 -0.08,-0.047 -0.122,-0.032c-0.563,-0.411 -2.204,-0.287 -2.194,-0.259c0,0 -1.961,0.302 -1.972,0.312c-0.503,0.085 -6.684,1.331 -7.195,1.465c-0.005,0.001 -0.009,0.002 -0.014,0.003c-0.27,0.071 -0.539,0.146 -0.807,0.222c-0.228,0.019 -0.448,0.061 -0.661,0.132c-0.466,0.033 -0.886,0.295 -1.126,0.622c-0.519,0.707 -0.317,2.061 0.684,2.386c0.317,0.103 0.608,0.04 0.839,-0.111c0.175,-0.052 0.351,-0.101 0.528,-0.147c0.296,-0.078 0.612,-0.117 0.898,-0.215c0.024,0.311 0.019,0.626 0.007,0.936c-0.121,2.825 -0.899,5.623 -1.541,8.409c-0.287,1.249 -0.761,2.65 -0.37,3.893c0.279,0.885 1.21,1.701 2.406,1.685c0.282,-0.004 0.543,-0.06 0.775,-0.157c1.657,-0.138 3.325,-0.429 4.968,-0.643c1.836,-0.239 3.674,-0.478 5.511,-0.717c0.067,-0.009 0.098,-0.053 0.099,-0.095c0.791,-0.325 1.249,-1.136 1.186,-1.82c-0.063,-0.663 -0.672,-1.577 -1.63,-1.442c-0.008,0.001 -0.013,0.003 -0.019,0.006c-0.011,-0.002 -0.023,-0.002 -0.036,0c-0.268,0.034 -0.536,0.069 -0.803,0.103c0.245,-1.302 0.82,-2.576 1.159,-3.867c0.342,-1.301 0.594,-2.615 0.746,-3.934" style="fill:#a7a4a4;fill-rule:nonzero;"/><g transform="matrix(0.999928,0.0119909,-0.0119909,0.999928,-1.39692,0.526378)"><text x="10.698px" y="15.772px" style="font-family:'BookmanOldStyle-Bold', 'Bookman Old Style', serif;font-weight:600;font-size:16px;">i</text></g><defs><linearGradient id="_Linear1" x1="0" y1="0" x2="1" y2="0" gradientUnits="userSpaceOnUse" gradientTransform="matrix(-1.42227,-17.4829,21.3704,-1.88948,13.6134,19.867)"><stop offset="0%" style="stop-color:#55524d;stop-opacity:1"/><stop offset="8%" style="stop-color:#928a77;stop-opacity:1"/><stop offset="17%" style="stop-color:#a49a83;stop-opacity:1"/><stop offset="31%" style="stop-color:#c4bfb5;stop-opacity:1"/><stop offset="42%" style="stop-color:#dedcd6;stop-opacity:1"/><stop offset="56%" style="stop-color:#f6f5f3;stop-opacity:1"/><stop offset="100%" style="stop-color:#fff;stop-opacity:1"/></linearGradient></defs></svg>