<?xml version="1.0" encoding="UTF-8" standalone="no"?><!DOCTYPE svg PUBLIC "-//W3C//DTD SVG 1.1//EN" "http://www.w3.org/Graphics/SVG/1.1/DTD/svg11.dtd"><svg width="28px" height="29px" version="1.1" xmlns="http://www.w3.org/2000/svg" xmlns:xlink="http://www.w3.org/1999/xlink" xml:space="preserve" style="fill-rule:evenodd;clip-rule:evenodd;stroke-linejoin:round;stroke-miterlimit:1.41421;"><rect id="forum.-unread.-subforum" x="0" y="0.5" width="27.17" height="28" style="fill:none;"/><path d="M7.786,26.695c-0.957,0.088 -1.876,-0.397 -2.402,-1.011c-1.22,-1.423 -0.506,-3.531 -0.144,-5.141c0.385,-1.721 0.817,-3.436 1.185,-5.159c0.366,-1.718 0.67,-3.446 0.796,-5.18c0.102,-1.385 0.173,-2.92 -0.755,-4.11c-0.262,-0.337 -0.638,-0.654 -1.101,-0.799c0.046,-0.004 4.14,-0.897 4.14,-0.897l6.255,-1.184c0,0 1.864,-0.307 2.7,-0.429c0.459,-0.067 1.705,0.03 2.077,0.29c1.903,2.589 1.913,5.778 1.514,8.764c-0.213,1.594 -0.535,3.184 -0.966,4.756c-0.402,1.467 -1.104,2.947 -1.207,4.446c-1.842,0.241 -3.681,0.5 -5.522,0.748c-0.43,0.059 -4.604,0.59 -6.186,0.861c-0.11,-0.004 -0.224,0 -0.342,0.014c-1.331,0.157 -1.713,1.617 -0.601,2.209c0.295,0.158 0.684,0.158 1,0.005c0.378,-0.045 0.714,-0.158 1.089,-0.222c0.017,0.002 0.242,-0.008 0.373,-0.033c0.008,-0.002 0.116,-0.031 0.116,-0.024c-0.054,0.72 -0.564,1.64 -1.377,1.957c-0.186,0.033 -0.447,0.101 -0.632,0.138c-0.005,0.001 -0.008,0.001 -0.01,0.001Z" style="fill:url(#_Linear1);"/><path d="M7.762,26.458l0.01,0c0.011,-0.016 -0.018,-0.001 -0.01,0Z" style="fill:#e8d29c;"/><path d="M21.357,20.934c1.163,-0.011 1.794,1.238 1.714,2.049c-0.078,0.811 -0.677,1.342 -1.428,1.825c-0.017,0.012 -0.028,0.025 -0.036,0.039c-0.131,0.017 -12.436,1.594 -12.652,1.628c0.559,-0.424 0.905,-1.054 0.951,-1.689c0.061,-0.814 -0.43,-1.823 -1.327,-2.144c0.225,-0.024 12.765,-1.672 12.778,-1.708Z" style="fill:#e8d29c;"/><path d="M9.622,23.657c0.137,0.258 0.124,0.655 0.137,0.924c-0.012,-0.001 -0.026,-0.001 -0.042,0.001c-0.094,0.019 -1.192,0.227 -1.314,0.248c0.01,-0.01 -0.016,-0.129 -0.007,-0.141c0.195,-0.243 0.137,-0.563 -0.081,-0.746c0.161,-0.025 0.348,-0.081 0.509,-0.107c0.215,-0.034 0.405,0.041 0.597,-0.052c0.033,-0.016 0.075,-0.038 0.061,-0.065c-0.01,-0.02 -0.018,0.031 -0.045,0.029c-0.239,-0.02 -0.487,0.064 -0.721,0.111c-0.18,0.037 -0.359,0.076 -0.54,0.114c-0.012,-0.005 -0.025,-0.011 -0.038,-0.016c-0.051,-0.018 -0.093,0.011 -0.104,0.046c-0.01,0.002 -0.022,0.004 -0.033,0.006c-0.085,0.019 0.14,-0.034 0.226,-0.047c0.038,-0.006 -0.011,0.053 0.028,0.047c0.628,0.329 -0.304,1.035 -0.851,0.846c-0.334,-0.116 -0.541,-0.423 -0.601,-0.706c-0.124,-0.584 0.299,-1.278 1.045,-1.379c0.814,-0.11 1.479,0.333 1.774,0.887Z" style="fill:#553c03;"/><path d="M6.551,6.506c-0.513,-0.015 -1.012,0.137 -1.487,0.336c-0.229,-0.026 -0.38,-0.026 -0.576,0.108c-0.374,0.255 -0.374,0.54 0.007,0.752c0.204,0.114 0.091,0.046 0.137,0.032c0.141,-0.006 0.237,-0.077 0.347,-0.097c0.21,-0.036 0.432,-0.034 0.641,-0.076c0.011,0.206 -0.066,0.516 -0.165,0.695c-0.33,0.599 -1.085,0.779 -1.657,0.332c-0.847,-0.661 -0.979,-2.059 -0.088,-2.794c1.1,-0.909 2.261,-0.097 2.841,0.712Z" style="fill:#755202;"/><path d="M6.75,6.929c0.196,0.429 0.277,0.951 0.206,1.373c-0.105,0.001 -1.501,0.274 -1.602,0.311c0.353,-0.429 0.623,-1.043 0.292,-1.432c-0.082,-0.095 -0.324,-0.246 -0.455,-0.304c0.346,-0.091 0.744,-0.205 1.117,-0.263c0.294,-0.045 0.181,-0.025 0.195,-0.046c0.061,0.099 0.204,0.266 0.247,0.361Z" style="fill:#553c03;"/><path d="M5.624,7.428c0.008,0.02 -0.112,0.079 -0.106,0.1c-0.211,0.041 -0.422,0.088 -0.632,0.134c-0.02,0.005 -0.135,0.024 -0.243,0.051c-0.007,-0.007 -0.114,-0.043 -0.125,-0.05c-0.43,-0.235 0.09,-0.702 0.45,-0.715c0.215,-0.008 0.601,0.364 0.656,0.48Z" style="fill:#3c2a01;"/><path id="path4771" d="M5.516,7.37c0.009,0.02 0.015,0.04 0.021,0.06c-0.211,0.041 -0.421,0.088 -0.632,0.135c-0.02,0.004 -0.135,0.024 -0.242,0.05c-0.008,-0.007 -0.017,-0.014 -0.028,-0.02c-0.43,-0.235 0.002,-0.585 0.362,-0.598c0.215,-0.008 0.464,0.257 0.519,0.373m0.891,-0.904c-0.469,-0.017 -0.95,0.107 -1.383,0.295c-0.208,-0.026 -0.427,0.01 -0.605,0.136c-0.339,0.242 -0.325,0.693 0.028,0.886c0.044,0.025 0.093,0.025 0.135,0.012c0.128,-0.005 0.313,-0.063 0.414,-0.081c0.191,-0.033 0.384,-0.068 0.575,-0.107c0.011,0.196 -0.049,0.408 -0.139,0.578c-0.298,0.57 -0.986,0.738 -1.51,0.31c-0.776,-0.634 -0.902,-1.968 -0.092,-2.665c0.999,-0.862 2.044,-0.139 2.577,0.636m0.226,0.395c0.196,0.429 0.296,0.883 0.342,1.343c-0.104,0.001 -1.334,0.274 -1.436,0.311c0.353,-0.428 0.457,-1.042 0.127,-1.431c-0.083,-0.096 -0.198,-0.178 -0.329,-0.236c0.346,-0.091 0.699,-0.157 1.069,-0.233c0.03,-0.007 0.054,-0.026 0.068,-0.047c0.061,0.099 0.116,0.197 0.159,0.293m2.92,16.812c0.136,0.258 0.213,0.542 0.225,0.811c-0.012,-0.001 -0.025,-0.002 -0.041,0.001c-0.095,0.018 -1.172,0.244 -1.293,0.265c0.009,-0.009 -0.002,-0.037 0.007,-0.049c0.195,-0.242 0.142,-0.537 -0.076,-0.719c0.161,-0.026 0.323,-0.051 0.484,-0.077c0.215,-0.034 0.435,-0.047 0.628,-0.14c0.033,-0.017 0.039,-0.049 0.025,-0.076c-0.01,-0.02 -0.029,-0.037 -0.056,-0.038c-0.239,-0.021 -0.487,0.064 -0.72,0.111c-0.181,0.037 -0.36,0.075 -0.54,0.113c-0.013,-0.005 -0.026,-0.01 -0.038,-0.016c-0.052,-0.017 -0.093,0.011 -0.105,0.046c-0.01,0.002 -0.022,0.005 -0.033,0.007c-0.085,0.019 -0.052,0.134 0.034,0.121c0.039,-0.006 0.079,-0.012 0.117,-0.018c0.628,0.328 -0.2,0.931 -0.747,0.742c-0.335,-0.115 -0.541,-0.423 -0.601,-0.706c-0.125,-0.584 0.302,-1.153 1.048,-1.254c0.813,-0.11 1.387,0.322 1.682,0.876m11.643,-2.722c1.132,-0.011 1.746,1.201 1.668,1.989c-0.076,0.787 -0.66,1.303 -1.391,1.772c-0.016,0.012 -0.027,0.024 -0.035,0.038c-0.127,0.016 -12.104,1.551 -12.314,1.584c0.544,-0.412 0.881,-1.023 0.926,-1.64c0.059,-0.791 -0.412,-1.705 -1.284,-2.016c0.219,-0.024 12.417,-1.693 12.43,-1.727m-0.63,-17.881c1.901,2.577 1.91,5.753 1.51,8.726c-0.213,1.588 -0.536,3.171 -0.968,4.737c-0.402,1.462 -1.105,2.936 -1.209,4.429c-1.842,0.24 -3.681,0.499 -5.522,0.747c-0.43,0.059 -4.604,0.589 -6.186,0.86c-0.11,-0.004 -0.224,0 -0.342,0.014c-1.331,0.157 -1.812,1.709 -0.7,2.298c0.294,0.157 0.723,0.176 1.039,0.025c0.378,-0.046 1.192,-0.179 1.567,-0.242c0.017,0.001 -0.13,0.025 0,0c0.008,-0.002 0.216,0.436 0.224,0.433c-0.001,0.008 -0.202,-0.427 -0.202,-0.42c-0.054,0.717 -0.517,1.466 -1.329,1.782c-0.187,0.033 -0.448,0.1 -0.632,0.138c-0.032,0.006 0.013,-0.019 0,0c-0.961,0.092 -1.885,-0.392 -2.412,-1.006c-1.219,-1.416 -0.505,-3.515 -0.142,-5.119c0.386,-1.714 0.819,-3.422 1.188,-5.138c0.366,-1.711 0.671,-3.433 0.798,-5.16c0.102,-1.378 0.173,-2.907 -0.754,-4.092c-0.262,-0.336 -0.637,-0.651 -1.1,-0.795c0.045,-0.004 4.14,-0.896 4.14,-0.896l6.255,-1.181c0,0 1.864,-0.306 2.7,-0.429c0.46,-0.067 1.705,0.03 2.077,0.289m1.862,8.203c0.33,-2.865 0.204,-5.882 -1.631,-8.348c-0.039,-0.05 -0.099,-0.057 -0.151,-0.039c-0.698,-0.509 -2.731,-0.356 -2.72,-0.321c0,0 -2.429,0.375 -2.442,0.387c-0.624,0.106 -8.284,1.65 -8.917,1.816c-0.006,0 -0.012,0.002 -0.017,0.004c-0.335,0.088 -0.669,0.18 -1.001,0.274c-0.281,0.024 -0.554,0.076 -0.818,0.163c-0.577,0.042 -1.098,0.366 -1.396,0.772c-0.643,0.876 -0.393,2.553 0.847,2.956c0.394,0.128 0.755,0.05 1.041,-0.138c0.217,-0.063 0.435,-0.124 0.654,-0.182c0.367,-0.095 0.759,-0.144 1.112,-0.266c0.03,0.386 0.025,0.776 0.009,1.16c-0.149,3.502 -1.114,6.969 -1.909,10.421c-0.356,1.547 -0.944,3.284 -0.458,4.824c0.345,1.097 1.498,2.108 2.98,2.088c0.351,-0.005 0.673,-0.074 0.961,-0.194c2.053,-0.171 4.12,-0.532 6.157,-0.797c2.275,-0.296 4.552,-0.593 6.829,-0.889c0.083,-0.01 0.121,-0.065 0.123,-0.117c0.98,-0.403 1.548,-1.408 1.469,-2.255c-0.078,-0.823 -0.832,-1.954 -2.02,-1.787c-0.009,0.001 -0.016,0.003 -0.024,0.006c-0.013,-0.001 -0.028,-0.002 -0.044,0.001c-0.332,0.041 -0.664,0.085 -0.995,0.128c0.304,-1.614 1.017,-3.193 1.436,-4.793c0.424,-1.611 0.737,-3.241 0.925,-4.874" style="fill:#a7a4a4;fill-rule:nonzero;"/><g id="text"><path d="M12.584,7.786l-3.267,0.335l0.054,0.534l3.268,-0.336l-0.055,-0.533Z" style="fill:#3b3831;"/><path d="M19.384,16.253l-3.267,0.335l0.054,0.534l3.268,-0.336l-0.055,-0.533Z" style="fill:#3b3831;"/><path d="M20.127,9.707l-10.537,1.082l-0.054,-0.534l10.537,-1.082l0.054,0.534Z" style="fill:#3b3831;"/><path d="M20.347,11.841l-10.537,1.082l-0.055,-0.534l10.537,-1.082l0.055,0.534Z" style="fill:#3b3831;"/><path d="M20.566,13.975l-10.537,1.082l-0.055,-0.534l10.537,-1.081l0.055,0.533Z" style="fill:#3b3831;"/></g><g><rect x="13.759" y="17.527" width="9.267" height="5.543" style="fill:#bd9b4b;"/><path id="ion.-android.-folder.-open" d="M22.695,16.912c0.535,0 1.001,0.501 1.001,1.077l0,4.658c0,0.577 -0.466,1.077 -1.001,1.077l-8.419,0c-0.535,0 -1,-0.5 -1,-1.077l0,-5.86c0,-0.576 0.465,-1.077 1,-1.077l3.209,0l1.001,1.202l4.21,0l-0.001,0Zm0.256,5.735l0,-4.658c0,-0.15 -0.117,-0.275 -0.256,-0.275l-8.676,0l0,4.933c0,0.151 0.117,0.276 0.256,0.276l8.42,0c0.139,0 0.256,-0.125 0.256,-0.276Z" style="fill:#343333;fill-rule:nonzero;"/></g><defs><linearGradient id="_Linear1" x1="0" y1="0" x2="1" y2="0" gradientUnits="userSpaceOnUse" gradientTransform="matrix(-1.76251,-21.6652,26.4827,-2.34148,15.9064,25.2568)"><stop offset="0%" style="stop-color:#705822;stop-opacity:1"/><stop offset="8%" style="stop-color:#a6863c;stop-opacity:1"/><stop offset="17%" style="stop-color:#b59344;stop-opacity:1"/><stop offset="19%" style="stop-color:#b99747;stop-opacity:1"/><stop offset="22%" style="stop-color:#bc9a4a;stop-opacity:1"/><stop offset="31%" style="stop-color:#bd9b4b;stop-opacity:1"/><stop offset="42%" style="stop-color:#d0af5b;stop-opacity:1"/><stop offset="56%" style="stop-color:#e1c069;stop-opacity:1"/><stop offset="100%" style="stop-color:#e8c76e;stop-opacity:1"/></linearGradient></defs></svg>