<?xml version="1.0" encoding="UTF-8" standalone="no"?><!DOCTYPE svg PUBLIC "-//W3C//DTD SVG 1.1//EN" "http://www.w3.org/Graphics/SVG/1.1/DTD/svg11.dtd"><svg width="28px" height="29px" version="1.1" xmlns="http://www.w3.org/2000/svg" xmlns:xlink="http://www.w3.org/1999/xlink" xml:space="preserve" style="fill-rule:evenodd;clip-rule:evenodd;stroke-linejoin:round;stroke-miterlimit:1.41421;"><rect id="forum.-read.-locked" x="0.533" y="0.5" width="27.17" height="28" style="fill:none;"/><path d="M8.32,26.695c-0.957,0.088 -1.877,-0.397 -2.403,-1.011c-1.219,-1.423 -0.506,-3.531 -0.144,-5.141c0.386,-1.721 0.818,-3.436 1.186,-5.159c0.365,-1.718 0.67,-3.446 0.796,-5.18c0.101,-1.385 0.172,-2.92 -0.756,-4.11c-0.262,-0.337 -0.638,-0.654 -1.101,-0.799c0.046,-0.004 4.14,-0.897 4.14,-0.897l6.255,-1.184c0,0 1.864,-0.307 2.7,-0.429c0.46,-0.067 1.706,0.03 2.077,0.29c1.903,2.589 1.913,5.778 1.515,8.764c-0.213,1.594 -0.536,3.184 -0.966,4.756c-0.403,1.467 -1.105,2.947 -1.208,4.446c-1.841,0.241 -3.681,0.5 -5.521,0.748c-0.43,0.059 -4.604,0.59 -6.187,0.861c-0.109,-0.004 -0.223,0 -0.342,0.014c-1.33,0.157 -1.712,1.617 -0.601,2.209c0.295,0.158 0.684,0.158 1.001,0.005c0.377,-0.045 0.713,-0.158 1.089,-0.222c0.016,0.002 0.242,-0.008 0.372,-0.033c0.008,-0.002 0.117,-0.031 0.116,-0.024c-0.054,0.72 -0.564,1.64 -1.376,1.957c-0.187,0.033 -0.448,0.101 -0.632,0.138c-0.006,0.001 -0.009,0.001 -0.01,0.001Z" style="fill:url(#_Linear1);"/><path d="M8.295,26.458l0.011,0c0.01,-0.016 -0.019,-0.001 -0.011,0Z" style="fill:#e8d29c;"/><path d="M21.891,20.934c1.162,-0.011 1.794,1.238 1.714,2.049c-0.079,0.811 -0.678,1.342 -1.429,1.825c-0.016,0.012 -0.028,0.025 -0.036,0.039c-0.131,0.017 -12.436,1.594 -12.652,1.628c0.559,-0.424 0.905,-1.054 0.952,-1.689c0.06,-0.814 -0.431,-1.823 -1.328,-2.144c0.226,-0.024 12.766,-1.672 12.779,-1.708Z" style="fill:#fff;"/><path d="M10.155,23.657c0.137,0.258 0.125,0.655 0.137,0.924c-0.012,-0.001 -0.025,-0.001 -0.041,0.001c-0.095,0.019 -1.193,0.227 -1.315,0.248c0.01,-0.01 -0.016,-0.129 -0.006,-0.141c0.194,-0.243 0.136,-0.563 -0.082,-0.746c0.162,-0.025 0.348,-0.081 0.509,-0.107c0.215,-0.034 0.405,0.041 0.597,-0.052c0.034,-0.016 0.075,-0.038 0.062,-0.065c-0.01,-0.02 -0.019,0.031 -0.046,0.029c-0.239,-0.02 -0.487,0.064 -0.72,0.111c-0.181,0.037 -0.36,0.076 -0.54,0.114c-0.013,-0.005 -0.026,-0.011 -0.038,-0.016c-0.052,-0.018 -0.093,0.011 -0.105,0.046c-0.01,0.002 -0.022,0.004 -0.033,0.006c-0.085,0.019 0.14,-0.034 0.226,-0.047c0.038,-0.006 -0.011,0.053 0.028,0.047c0.628,0.329 -0.303,1.035 -0.85,0.846c-0.335,-0.116 -0.541,-0.423 -0.601,-0.706c-0.125,-0.584 0.299,-1.278 1.044,-1.379c0.814,-0.11 1.479,0.333 1.774,0.887Z" style="fill:#605c54;"/><path d="M7.085,6.506c-0.514,-0.015 -1.012,0.137 -1.488,0.336c-0.228,-0.026 -0.38,-0.026 -0.576,0.108c-0.373,0.255 -0.373,0.54 0.007,0.752c0.205,0.114 0.092,0.046 0.137,0.032c0.141,-0.006 0.237,-0.077 0.347,-0.097c0.211,-0.036 0.432,-0.034 0.642,-0.076c0.01,0.206 -0.066,0.516 -0.166,0.695c-0.33,0.599 -1.084,0.779 -1.657,0.332c-0.847,-0.661 -0.979,-2.059 -0.088,-2.794c1.101,-0.909 2.261,-0.097 2.842,0.712Z" style="fill:#605c54;"/><path d="M7.284,6.929c0.196,0.429 0.277,0.951 0.205,1.373c-0.104,0.001 -1.5,0.274 -1.602,0.311c0.353,-0.429 0.623,-1.043 0.293,-1.432c-0.083,-0.095 -0.325,-0.246 -0.456,-0.304c0.346,-0.091 0.744,-0.205 1.118,-0.263c0.294,-0.045 0.181,-0.025 0.195,-0.046c0.061,0.099 0.203,0.266 0.247,0.361Z" style="fill:#6d6b66;"/><path d="M6.157,7.428c0.009,0.02 -0.112,0.079 -0.106,0.1c-0.211,0.041 -0.421,0.088 -0.632,0.134c-0.02,0.005 -0.135,0.024 -0.242,0.051c-0.008,-0.007 -0.114,-0.043 -0.126,-0.05c-0.43,-0.235 0.09,-0.702 0.451,-0.715c0.214,-0.008 0.6,0.364 0.655,0.48Z" style="fill:#302f2d;"/><path id="path4771" d="M6.049,7.37c0.009,0.02 0.015,0.04 0.021,0.06c-0.211,0.041 -0.421,0.088 -0.632,0.135c-0.019,0.004 -0.134,0.024 -0.242,0.05c-0.007,-0.007 -0.016,-0.014 -0.028,-0.02c-0.43,-0.235 0.002,-0.585 0.363,-0.598c0.214,-0.008 0.463,0.257 0.518,0.373m0.891,-0.904c-0.469,-0.017 -0.95,0.107 -1.382,0.295c-0.209,-0.026 -0.427,0.01 -0.605,0.136c-0.34,0.242 -0.326,0.693 0.027,0.886c0.045,0.025 0.093,0.025 0.135,0.012c0.129,-0.005 0.314,-0.063 0.414,-0.081c0.192,-0.033 0.385,-0.068 0.576,-0.107c0.01,0.196 -0.05,0.408 -0.14,0.578c-0.298,0.57 -0.986,0.738 -1.51,0.31c-0.776,-0.634 -0.902,-1.968 -0.092,-2.665c1,-0.862 2.044,-0.139 2.577,0.636m0.226,0.395c0.196,0.429 0.297,0.883 0.343,1.343c-0.105,0.001 -1.335,0.274 -1.436,0.311c0.353,-0.428 0.456,-1.042 0.126,-1.431c-0.083,-0.096 -0.197,-0.178 -0.328,-0.236c0.346,-0.091 0.698,-0.157 1.068,-0.233c0.03,-0.007 0.054,-0.026 0.068,-0.047c0.061,0.099 0.116,0.197 0.159,0.293m2.92,16.812c0.137,0.258 0.213,0.542 0.226,0.811c-0.012,-0.001 -0.026,-0.002 -0.042,0.001c-0.095,0.018 -1.172,0.244 -1.293,0.265c0.01,-0.009 -0.002,-0.037 0.008,-0.049c0.194,-0.242 0.141,-0.537 -0.077,-0.719c0.162,-0.026 0.323,-0.051 0.485,-0.077c0.214,-0.034 0.435,-0.047 0.627,-0.14c0.033,-0.017 0.039,-0.049 0.026,-0.076c-0.01,-0.02 -0.029,-0.037 -0.057,-0.038c-0.238,-0.021 -0.487,0.064 -0.72,0.111c-0.181,0.037 -0.36,0.075 -0.54,0.113c-0.013,-0.005 -0.025,-0.01 -0.038,-0.016c-0.052,-0.017 -0.093,0.011 -0.104,0.046c-0.011,0.002 -0.023,0.005 -0.033,0.007c-0.086,0.019 -0.052,0.134 0.034,0.121c0.038,-0.006 0.078,-0.012 0.116,-0.018c0.629,0.328 -0.2,0.931 -0.747,0.742c-0.335,-0.115 -0.541,-0.423 -0.601,-0.706c-0.125,-0.584 0.303,-1.153 1.048,-1.254c0.814,-0.11 1.387,0.322 1.682,0.876m11.643,-2.722c1.132,-0.011 1.746,1.201 1.668,1.989c-0.076,0.787 -0.66,1.303 -1.39,1.772c-0.017,0.012 -0.028,0.024 -0.036,0.038c-0.127,0.016 -12.104,1.551 -12.314,1.584c0.544,-0.412 0.881,-1.023 0.927,-1.64c0.058,-0.791 -0.412,-1.705 -1.285,-2.016c0.219,-0.024 12.418,-1.693 12.43,-1.727m-0.63,-17.881c1.902,2.577 1.91,5.753 1.511,8.726c-0.214,1.588 -0.537,3.171 -0.968,4.737c-0.403,1.462 -1.106,2.936 -1.21,4.429c-1.841,0.24 -3.681,0.499 -5.521,0.747c-0.43,0.059 -4.604,0.589 -6.187,0.86c-0.109,-0.004 -0.223,0 -0.342,0.014c-1.33,0.157 -1.811,1.709 -0.7,2.298c0.295,0.157 0.723,0.176 1.04,0.025c0.377,-0.046 1.191,-0.179 1.567,-0.242c0.016,0.001 -0.131,0.025 0,0c0.007,-0.002 0.215,0.436 0.223,0.433c0,0.008 -0.201,-0.427 -0.202,-0.42c-0.054,0.717 -0.516,1.466 -1.329,1.782c-0.186,0.033 -0.447,0.1 -0.632,0.138c-0.031,0.006 0.013,-0.019 0,0c-0.96,0.092 -1.885,-0.392 -2.412,-1.006c-1.219,-1.416 -0.505,-3.515 -0.142,-5.119c0.386,-1.714 0.819,-3.422 1.188,-5.138c0.366,-1.711 0.671,-3.433 0.798,-5.16c0.102,-1.378 0.174,-2.907 -0.754,-4.092c-0.262,-0.336 -0.637,-0.651 -1.1,-0.795c0.046,-0.004 4.14,-0.896 4.14,-0.896l6.255,-1.181c0,0 1.864,-0.306 2.7,-0.429c0.46,-0.067 1.706,0.03 2.077,0.289m1.862,8.203c0.33,-2.865 0.205,-5.882 -1.631,-8.348c-0.039,-0.05 -0.099,-0.057 -0.15,-0.039c-0.699,-0.509 -2.732,-0.356 -2.72,-0.321c0,0 -2.429,0.375 -2.443,0.387c-0.624,0.106 -8.283,1.65 -8.916,1.816c-0.007,0 -0.012,0.002 -0.017,0.004c-0.336,0.088 -0.669,0.18 -1.001,0.274c-0.282,0.024 -0.555,0.076 -0.819,0.163c-0.577,0.042 -1.098,0.366 -1.395,0.772c-0.644,0.876 -0.394,2.553 0.847,2.956c0.393,0.128 0.754,0.05 1.04,-0.138c0.217,-0.063 0.435,-0.124 0.654,-0.182c0.367,-0.095 0.759,-0.144 1.112,-0.266c0.031,0.386 0.025,0.776 0.009,1.16c-0.149,3.502 -1.114,6.969 -1.908,10.421c-0.357,1.547 -0.944,3.284 -0.459,4.824c0.345,1.097 1.499,2.108 2.98,2.088c0.351,-0.005 0.674,-0.074 0.961,-0.194c2.053,-0.171 4.121,-0.532 6.157,-0.797c2.276,-0.296 4.553,-0.593 6.83,-0.889c0.082,-0.01 0.121,-0.065 0.122,-0.117c0.98,-0.403 1.548,-1.408 1.469,-2.255c-0.078,-0.823 -0.832,-1.954 -2.02,-1.787c-0.009,0.001 -0.016,0.003 -0.023,0.006c-0.014,-0.001 -0.029,-0.002 -0.045,0.001c-0.332,0.041 -0.664,0.085 -0.994,0.128c0.304,-1.614 1.016,-3.193 1.436,-4.793c0.423,-1.611 0.736,-3.241 0.924,-4.874" style="fill:#a7a4a4;fill-rule:nonzero;"/><g><path d="M13.118,7.786l-3.268,0.335l0.055,0.534l3.267,-0.336l-0.054,-0.533Z" style="fill:#3b3831;"/><path d="M19.918,16.253l-3.268,0.335l0.055,0.534l3.267,-0.336l-0.054,-0.533Z" style="fill:#3b3831;"/><path d="M20.661,9.707l-10.537,1.082l-0.055,-0.534l10.537,-1.082l0.055,0.534Z" style="fill:#3b3831;"/><path d="M20.88,11.841l-10.537,1.082l-0.055,-0.534l10.537,-1.082l0.055,0.534Z" style="fill:#3b3831;"/><path d="M21.099,13.975l-10.537,1.082l-0.055,-0.534l10.537,-1.081l0.055,0.533Z" style="fill:#3b3831;"/></g><path id="lock" d="M22.98,19.308l-0.137,0l0,-1.638c0,-0.904 -0.735,-1.639 -1.638,-1.639l-1.092,0c-0.904,0 -1.639,0.735 -1.639,1.639l0,1.638l-0.136,0c-0.226,0 -0.41,0.184 -0.41,0.41l0,4.096c0,0.225 0.184,0.409 0.41,0.409l4.642,0c0.225,0 0.41,-0.184 0.41,-0.409l0,-4.096c0,-0.226 -0.185,-0.41 -0.41,-0.41Zm-3.414,-1.638c0,-0.302 0.245,-0.547 0.547,-0.547l1.092,0c0.301,0 0.546,0.245 0.546,0.547l0,1.638l-2.185,0l0,-1.638Z" style="fill:#bebebe;fill-rule:nonzero;stroke:#343333;stroke-width:1px;"/><defs><linearGradient id="_Linear1" x1="0" y1="0" x2="1" y2="0" gradientUnits="userSpaceOnUse" gradientTransform="matrix(-1.76251,-21.6652,26.4827,-2.34148,16.4398,25.2568)"><stop offset="0%" style="stop-color:#55524d;stop-opacity:1"/><stop offset="8%" style="stop-color:#928a77;stop-opacity:1"/><stop offset="17%" style="stop-color:#a49a83;stop-opacity:1"/><stop offset="31%" style="stop-color:#c4bfb5;stop-opacity:1"/><stop offset="42%" style="stop-color:#dedcd6;stop-opacity:1"/><stop offset="56%" style="stop-color:#f6f5f3;stop-opacity:1"/><stop offset="100%" style="stop-color:#fff;stop-opacity:1"/></linearGradient></defs></svg>