<?xml version="1.0" encoding="UTF-8" standalone="no"?>
<!DOCTYPE svg PUBLIC "-//W3C//DTD SVG 1.1//EN" "http://www.w3.org/Graphics/SVG/1.1/DTD/svg11.dtd">
<svg width="100%" height="100%" viewBox="0 0 300 400" version="1.1" xmlns="http://www.w3.org/2000/svg" xmlns:xlink="http://www.w3.org/1999/xlink" xml:space="preserve" style="fill-rule:evenodd;clip-rule:evenodd;stroke-linejoin:round;stroke-miterlimit:1.41421;">
    <path d="M4.906,8.162L4.435,7.303L4.419,5.375L5.645,4.628L6.129,3.541L42.286,3.541L43.063,4.021L44.895,4.507L45.827,4.047L47.861,3.841L49.532,3.541L85.492,3.541L87.439,4.013L90.836,3.502L93.932,3.583L95.07,4.904L96.495,4.731L97.429,3.914L98.7,4.027L101.906,3.495L153.7,3.575L154.459,4.28L155.501,3.599L183.801,3.519L184.252,4.28L185.018,4.744L185.423,3.84L186.863,3.599L192.159,3.569L232.113,3.569L256.52,3.529L258.879,4.547L258.916,3.535L275.578,3.497L276.493,3.976L277.223,3.5L286.374,3.562L293.075,3.562L292.947,4.454L294.149,4.774L294.513,6.996L294.073,10.106L294.513,11.282L294.553,40.308L294.002,41.76L293.436,42.738L294.186,44.137L294.619,47.495L294.619,72.547L294.179,73.582L294.619,74.744L294.619,97.162L294.226,100.302L293.54,102.455L294.619,104.328L294.619,127.301L293.978,129.716L294.619,130.424L294.619,158.995L294.635,164.417L294.048,166.423L294.613,168.495L294.613,204.25L293.761,203.712L294.543,206.678L293.551,207.29L293.955,208.376L294.619,210.162L294.619,247.995L294.539,335.796L293.38,336.447L294.101,337.76L294.491,339.446L294.241,340.211L294.613,343.248L294.613,380.224L293.574,380.755L294.589,381.369L294.589,391.898L293.766,392.817L293.901,394.389L263.769,394.389L262.775,393.291L261.35,392.797L260.685,393.716L259.783,394.418L220.792,394.338L217.969,393.791L216.437,393.097L215.732,393.376L214.887,394.421L164.724,394.341L163.641,392.97L162.616,394.362L92.499,394.482L91.06,393.458L89.727,393.939L88.121,393.57L87.369,394.429L60.862,394.469L30.559,394.442L27.766,393.77L25.686,394.429L5.968,394.349L5.591,393.29L4.418,392.844L4.429,347.859L4.819,345.147L4.443,341.56L5.298,340.168L4.365,339.368L4.405,296.052L5.303,293.159L5.25,291.509L4.439,289.788L4.359,240.075L5.135,238.003L4.452,236.746C4.446,223.748 4.277,207.708 4.412,194.662L4.452,172.582L5.35,172.395L5.896,171.358L4.904,169.845L4.732,168.06L4.439,167.2L4.454,152.971L5.056,151.971L4.456,150.803L4.475,132.503L5.08,130.988L4.836,128.861L4.433,127.62L4.439,83.85L5.47,83.094L4.472,81.384L4.432,44.334L4.993,43.162L4.486,42.454L4.494,36.05L4.931,34.618L5.072,33.279L4.485,32.035L4.444,10.257L4.906,8.162Z" style="fill:rgb(246,239,226);"/>
</svg>
