<?xml version="1.0" encoding="UTF-8" standalone="no"?><!DOCTYPE svg PUBLIC "-//W3C//DTD SVG 1.1//EN" "http://www.w3.org/Graphics/SVG/1.1/DTD/svg11.dtd"><svg width="22px" height="23px" version="1.1" xmlns="http://www.w3.org/2000/svg" xmlns:xlink="http://www.w3.org/1999/xlink" xml:space="preserve" style="fill-rule:evenodd;clip-rule:evenodd;stroke-linejoin:round;stroke-miterlimit:1.41421;"><rect id="topic.-moved" x="0" y="0.5" width="22" height="22" style="fill:none;"/><path d="M6.916,21.308c-0.783,0.071 -1.536,-0.325 -1.966,-0.828c-0.998,-1.165 -0.415,-2.89 -0.118,-4.208c0.315,-1.409 0.669,-2.813 0.97,-4.223c0.3,-1.406 0.549,-2.821 0.652,-4.24c0.083,-1.133 0.141,-2.39 -0.619,-3.364c-0.214,-0.276 -0.522,-0.535 -0.9,-0.654c0.037,-0.004 3.388,-0.735 3.388,-0.735l5.12,-0.969c0,0 1.526,-0.251 2.21,-0.351c0.376,-0.055 1.396,0.025 1.7,0.238c1.558,2.119 1.566,4.729 1.24,7.173c-0.174,1.305 -0.439,2.606 -0.791,3.893c-0.329,1.201 -0.904,2.413 -0.989,3.639c-1.507,0.198 -3.012,0.41 -4.519,0.613c-0.352,0.048 -3.769,0.483 -5.064,0.705c-0.089,-0.004 -0.183,0 -0.28,0.011c-1.089,0.128 -1.401,1.323 -0.492,1.808c0.242,0.129 0.56,0.129 0.819,0.004c0.309,-0.037 0.584,-0.129 0.892,-0.181c0.013,0.001 0.198,-0.007 0.305,-0.028c0.006,-0.001 0.095,-0.025 0.095,-0.02c-0.045,0.59 -0.462,1.344 -1.127,1.603c-0.153,0.027 -0.366,0.082 -0.517,0.113c-0.005,0.001 -0.007,0.001 -0.009,0.001Z" style="fill:url(#_Linear1);"/><path d="M6.896,21.114l0.009,-0.001c0.009,-0.013 -0.015,-0.001 -0.009,0.001Z" style="fill:#e8d29c;"/><path d="M18.025,16.592c0.951,-0.009 1.468,1.013 1.403,1.677c-0.064,0.664 -0.555,1.099 -1.169,1.494c-0.014,0.01 -0.023,0.02 -0.03,0.032c-0.107,0.014 -10.179,1.304 -10.356,1.333c0.457,-0.347 0.741,-0.863 0.779,-1.383c0.049,-0.666 -0.353,-1.492 -1.087,-1.755c0.185,-0.02 10.449,-1.369 10.46,-1.398Z" style="fill:#e8d29c;"/><path d="M8.419,18.821c0.112,0.211 0.102,0.536 0.112,0.756c-0.01,0 -0.021,-0.001 -0.034,0.001c-0.078,0.015 -0.976,0.186 -1.076,0.203c0.008,-0.008 -0.013,-0.106 -0.005,-0.116c0.159,-0.198 0.111,-0.46 -0.067,-0.61c0.132,-0.02 0.285,-0.066 0.417,-0.088c0.175,-0.028 0.331,0.034 0.489,-0.042c0.027,-0.014 0.061,-0.032 0.05,-0.054c-0.009,-0.016 -0.016,0.026 -0.038,0.024c-0.195,-0.016 -0.398,0.053 -0.589,0.091c-0.148,0.031 -0.295,0.062 -0.442,0.093c-0.011,-0.004 -0.021,-0.008 -0.031,-0.013c-0.043,-0.014 -0.077,0.009 -0.086,0.038c-0.008,0.002 -0.018,0.004 -0.027,0.005c-0.07,0.016 0.114,-0.028 0.185,-0.038c0.031,-0.005 -0.009,0.043 0.023,0.038c0.514,0.269 -0.249,0.847 -0.696,0.692c-0.274,-0.094 -0.443,-0.346 -0.492,-0.578c-0.102,-0.478 0.244,-1.046 0.855,-1.128c0.666,-0.09 1.21,0.272 1.452,0.726Z" style="fill:#553c03;"/><path d="M5.905,4.782c-0.42,-0.012 -0.828,0.112 -1.217,0.275c-0.187,-0.021 -0.311,-0.021 -0.471,0.088c-0.306,0.209 -0.306,0.443 0.005,0.616c0.167,0.093 0.075,0.038 0.113,0.026c0.115,-0.005 0.193,-0.063 0.283,-0.079c0.173,-0.03 0.354,-0.028 0.525,-0.062c0.009,0.168 -0.054,0.422 -0.135,0.569c-0.27,0.49 -0.888,0.637 -1.356,0.272c-0.694,-0.542 -0.802,-1.686 -0.072,-2.288c0.9,-0.744 1.85,-0.079 2.325,0.583Z" style="fill:#755202;"/><path d="M6.068,5.128c0.161,0.351 0.227,0.779 0.169,1.124c-0.086,0.001 -1.229,0.224 -1.312,0.254c0.289,-0.35 0.51,-0.853 0.24,-1.171c-0.068,-0.078 -0.266,-0.202 -0.373,-0.249c0.283,-0.075 0.609,-0.168 0.915,-0.215c0.24,-0.037 0.148,-0.021 0.159,-0.038c0.05,0.081 0.167,0.217 0.202,0.295Z" style="fill:#553c03;"/><path d="M5.146,5.537c0.007,0.016 -0.092,0.065 -0.087,0.081c-0.172,0.034 -0.345,0.072 -0.517,0.111c-0.016,0.003 -0.11,0.019 -0.198,0.041c-0.006,-0.006 -0.093,-0.035 -0.103,-0.041c-0.352,-0.192 0.074,-0.575 0.369,-0.585c0.175,-0.007 0.491,0.298 0.536,0.393Z" style="fill:#3c2a01;"/><path id="path4771" d="M5.077,5.677c0.007,0.016 0.012,0.032 0.017,0.048c-0.172,0.034 -0.345,0.072 -0.517,0.11c-0.016,0.004 -0.11,0.02 -0.198,0.041c-0.006,-0.006 -0.014,-0.011 -0.023,-0.016c-0.352,-0.19 0.002,-0.474 0.297,-0.484c0.176,-0.007 0.379,0.207 0.424,0.301m0.73,-0.733c-0.383,-0.012 -0.777,0.088 -1.132,0.241c-0.17,-0.021 -0.349,0.008 -0.495,0.111c-0.278,0.196 -0.267,0.561 0.022,0.716c0.036,0.02 0.076,0.021 0.11,0.01c0.105,-0.005 0.257,-0.051 0.339,-0.066c0.157,-0.027 0.315,-0.055 0.471,-0.087c0.009,0.158 -0.041,0.33 -0.115,0.468c-0.244,0.461 -0.807,0.598 -1.236,0.252c-0.634,-0.513 -0.736,-1.591 -0.072,-2.156c0.819,-0.698 1.673,-0.115 2.108,0.511m0.185,0.32c0.16,0.347 0.242,0.714 0.279,1.087c-0.086,0 -1.093,0.223 -1.176,0.252c0.29,-0.346 0.375,-0.843 0.105,-1.158c-0.067,-0.077 -0.161,-0.143 -0.268,-0.19c0.283,-0.074 0.571,-0.128 0.874,-0.19c0.025,-0.005 0.044,-0.021 0.056,-0.038c0.05,0.08 0.094,0.16 0.13,0.237m2.373,13.599c0.112,0.208 0.174,0.437 0.184,0.655c-0.01,-0.001 -0.021,-0.001 -0.034,0.001c-0.078,0.015 -0.959,0.199 -1.059,0.216c0.008,-0.008 -0.001,-0.03 0.007,-0.04c0.159,-0.196 0.116,-0.434 -0.062,-0.582c0.132,-0.02 0.264,-0.041 0.396,-0.063c0.176,-0.027 0.357,-0.038 0.514,-0.114c0.027,-0.013 0.032,-0.039 0.021,-0.061c-0.008,-0.016 -0.024,-0.03 -0.046,-0.031c-0.195,-0.016 -0.399,0.053 -0.59,0.091c-0.147,0.03 -0.294,0.061 -0.442,0.092c-0.01,-0.004 -0.02,-0.008 -0.031,-0.013c-0.042,-0.014 -0.076,0.009 -0.085,0.038c-0.009,0.001 -0.019,0.003 -0.027,0.005c-0.07,0.015 -0.043,0.109 0.028,0.098c0.031,-0.005 0.063,-0.01 0.095,-0.015c0.514,0.265 -0.165,0.754 -0.612,0.602c-0.274,-0.094 -0.443,-0.342 -0.492,-0.571c-0.101,-0.472 0.249,-0.934 0.86,-1.016c0.665,-0.089 1.134,0.259 1.375,0.708m9.532,-2.214c0.926,-0.01 1.428,0.97 1.363,1.607c-0.063,0.637 -0.541,1.055 -1.14,1.435c-0.013,0.01 -0.022,0.02 -0.028,0.031c-0.105,0.013 -9.908,1.266 -10.081,1.294c0.446,-0.334 0.722,-0.829 0.76,-1.329c0.049,-0.639 -0.335,-1.378 -1.049,-1.629c0.18,-0.019 10.165,-1.381 10.175,-1.409m-0.498,-14.466c1.554,2.083 1.558,4.653 1.228,7.059c-0.177,1.285 -0.443,2.566 -0.797,3.833c-0.331,1.183 -0.908,2.376 -0.995,3.584c-1.507,0.196 -3.013,0.407 -4.519,0.61c-0.352,0.048 -3.769,0.481 -5.065,0.702c-0.089,-0.004 -0.182,0 -0.279,0.011c-1.089,0.128 -1.485,1.384 -0.576,1.86c0.241,0.127 0.592,0.142 0.851,0.019c0.309,-0.037 0.975,-0.145 1.283,-0.197c0.013,0.001 -0.107,0.02 0,0c0.006,-0.002 0.176,0.353 0.183,0.35c-0.001,0.006 -0.165,-0.345 -0.166,-0.34c-0.045,0.581 -0.424,1.187 -1.089,1.443c-0.152,0.027 -0.366,0.082 -0.517,0.112c-0.026,0.006 0.01,-0.015 0,0c-0.787,0.076 -1.542,-0.315 -1.973,-0.811c-0.997,-1.144 -0.41,-2.843 -0.112,-4.141c0.318,-1.387 0.674,-2.77 0.978,-4.158c0.301,-1.385 0.552,-2.778 0.658,-4.175c0.085,-1.115 0.145,-2.352 -0.613,-3.31c-0.214,-0.271 -0.521,-0.526 -0.9,-0.642c0.038,-0.004 3.39,-0.729 3.39,-0.729l5.12,-0.962c0,0 1.526,-0.249 2.21,-0.349c0.377,-0.055 1.396,0.022 1.7,0.231m1.516,6.635c0.272,-2.318 0.173,-4.759 -1.327,-6.752c-0.032,-0.041 -0.081,-0.046 -0.123,-0.031c-0.571,-0.411 -2.235,-0.285 -2.226,-0.257c0,0 -1.988,0.305 -1.999,0.315c-0.511,0.086 -6.782,1.343 -7.3,1.478c-0.005,0 -0.009,0.002 -0.014,0.003c-0.274,0.072 -0.547,0.147 -0.819,0.223c-0.231,0.019 -0.454,0.062 -0.67,0.133c-0.473,0.034 -0.899,0.297 -1.143,0.626c-0.528,0.709 -0.324,2.065 0.69,2.39c0.322,0.103 0.618,0.039 0.852,-0.112c0.177,-0.052 0.356,-0.101 0.535,-0.148c0.301,-0.078 0.622,-0.118 0.911,-0.217c0.024,0.312 0.019,0.628 0.006,0.939c-0.125,2.833 -0.919,5.638 -1.572,8.433c-0.294,1.251 -0.776,2.657 -0.38,3.902c0.281,0.887 1.224,1.704 2.437,1.687c0.287,-0.005 0.551,-0.061 0.787,-0.158c1.68,-0.141 3.372,-0.435 5.039,-0.651c1.863,-0.242 3.727,-0.484 5.591,-0.726c0.067,-0.008 0.099,-0.053 0.1,-0.095c0.802,-0.327 1.268,-1.14 1.205,-1.826c-0.063,-0.665 -0.679,-1.58 -1.652,-1.444c-0.008,0.001 -0.013,0.004 -0.019,0.006c-0.011,-0.002 -0.023,-0.002 -0.036,0c-0.272,0.034 -0.544,0.07 -0.815,0.105c0.251,-1.306 0.835,-2.584 1.18,-3.879c0.349,-1.304 0.606,-2.622 0.762,-3.944" style="fill:#a7a4a4;fill-rule:nonzero;"/><path id="arrow.-circle.-o.-right" d="M14.496,10.37c0,0.045 -0.017,0.096 -0.051,0.129l-1.791,1.791c-0.034,0.034 -0.084,0.051 -0.129,0.051c-0.095,0 -0.179,-0.084 -0.179,-0.179l0,-1.075l-1.971,0c-0.095,0 -0.179,-0.084 -0.179,-0.179l0,-1.075c0,-0.095 0.084,-0.179 0.179,-0.179l1.971,0l0,-1.075c0,-0.101 0.078,-0.179 0.179,-0.179c0.051,0 0.095,0.022 0.134,0.056l1.786,1.785c0.034,0.034 0.051,0.084 0.051,0.129l0,0Zm0.895,0c0,-1.679 -1.366,-3.045 -3.045,-3.045c-1.679,0 -3.046,1.366 -3.046,3.045c0,1.68 1.367,3.046 3.046,3.046c1.679,0 3.045,-1.366 3.045,-3.046Zm1.254,0c0,2.374 -1.926,4.3 -4.299,4.3c-2.374,0 -4.299,-1.926 -4.299,-4.3c0,-2.373 1.925,-4.299 4.299,-4.299c2.373,0 4.299,1.926 4.299,4.299Z" style="fill-rule:nonzero;"/><defs><linearGradient id="_Linear1" x1="0" y1="0" x2="1" y2="0" gradientUnits="userSpaceOnUse" gradientTransform="matrix(-1.44268,-17.7338,21.6771,-1.91659,13.563,20.1303)"><stop offset="0%" style="stop-color:#705822;stop-opacity:1"/><stop offset="8%" style="stop-color:#a6863c;stop-opacity:1"/><stop offset="17%" style="stop-color:#b59344;stop-opacity:1"/><stop offset="19%" style="stop-color:#b99747;stop-opacity:1"/><stop offset="22%" style="stop-color:#bc9a4a;stop-opacity:1"/><stop offset="31%" style="stop-color:#bd9b4b;stop-opacity:1"/><stop offset="42%" style="stop-color:#d0af5b;stop-opacity:1"/><stop offset="56%" style="stop-color:#e1c069;stop-opacity:1"/><stop offset="100%" style="stop-color:#e8c76e;stop-opacity:1"/></linearGradient></defs></svg>