<?xml version="1.0" encoding="UTF-8" standalone="no"?>
<!-- Created with Inkscape (http://www.inkscape.org/) -->

<svg
   xmlns:dc="http://purl.org/dc/elements/1.1/"
   xmlns:cc="http://creativecommons.org/ns#"
   xmlns:rdf="http://www.w3.org/1999/02/22-rdf-syntax-ns#"
   xmlns:svg="http://www.w3.org/2000/svg"
   xmlns="http://www.w3.org/2000/svg"
   xmlns:sodipodi="http://sodipodi.sourceforge.net/DTD/sodipodi-0.dtd"
   xmlns:inkscape="http://www.inkscape.org/namespaces/inkscape"
   width="210mm"
   height="297mm"
   viewBox="0 0 210 297"
   version="1.1"
   id="svg8"
   inkscape:version="0.92.1 r15371"
   sodipodi:docname="bg-page.svg">
  <defs
     id="defs2" />
  <sodipodi:namedview
     id="base"
     pagecolor="#ffffff"
     bordercolor="#666666"
     borderopacity="1.0"
     inkscape:pageopacity="0.0"
     inkscape:pageshadow="2"
     inkscape:zoom="0.35"
     inkscape:cx="-353.35771"
     inkscape:cy="-1323.3578"
     inkscape:document-units="mm"
     inkscape:current-layer="layer1"
     showgrid="false"
     inkscape:window-width="1920"
     inkscape:window-height="1017"
     inkscape:window-x="-8"
     inkscape:window-y="-8"
     inkscape:window-maximized="1" />
  <metadata
     id="metadata5">
    <rdf:RDF>
      <cc:Work
         rdf:about="">
        <dc:format>image/svg+xml</dc:format>
        <dc:type
           rdf:resource="http://purl.org/dc/dcmitype/StillImage" />
        <dc:title></dc:title>
      </cc:Work>
    </rdf:RDF>
  </metadata>
  <g
     inkscape:label="Ebene 1"
     inkscape:groupmode="layer"
     id="layer1">
    <rect
       style="opacity:0.99500002;fill:none;fill-opacity:0.98070739;stroke:#000000;stroke-width:0.31391776;stroke-miterlimit:4;stroke-dasharray:none;stroke-opacity:1"
       id="rect4485"
       width="1255.5066"
       height="864.6792"
       x="-543.4646"
       y="-118.70865" />
    <path
       style="fill:none;stroke:#000000;stroke-width:0.26458332px;stroke-linecap:butt;stroke-linejoin:miter;stroke-opacity:1"
       d="m 712.04197,745.97058 c -326.50625,-0.69083 -328.77413,-7.4944 -328.77413,-7.4944 l -3.77975,1.51191 0.75596,3.77975 -5.29166,1.51191 -344.714296,0.75594 -3.779761,-8.31545 -7.559524,-0.75597 c 0,0 5.291667,0.75597 2.267857,3.77976 -3.023809,3.02381 -4.535714,2.26787 -4.535714,2.26787 l -13.6071426,2.26785 -219.3017794,0.75594 h -142.04345 l -0.75597,-6.0476 -3.77976,1.5119 -0.75594,3.77976 -179.85149,0.69083 v 0 0 l 1.44674,-269.80988 5.29166,-3.02379 -2.26787,-6.04764"
       id="path4487"
       inkscape:connector-curvature="0" />
    <path
       style="fill:#f6efe2;stroke:#3b3b3b;stroke-width:0.26458332px;stroke-linecap:butt;stroke-linejoin:miter;stroke-opacity:1;fill-opacity:1"
       d="m -538.99405,467.08927 v 0 l -5.29167,-19.65476 -0.75594,-262.31547 5.29167,-5.29166 -3.77976,-5.29167 -0.75597,-75.595234 3.77979,-27.214287 -0.75597,-6.047619 -3.02382,-12.095236 0.75597,-34.017858 1.51191,-49.892856 2.26785,-10.583333 -0.75594,-6.803573 -3.77979,-18.898809 0.82114,-52.095555 v 0 l 90.6491,0.6908 3.02382,3.77976 6.04761,-5.29167 130.77978,2.26786 11.33927,3.02381 -2.26785,-3.02381 4.5357,-1.51191 184.45239,0.75596 2.26786,3.77976 2.26785,-2.26786 103.5654786,-0.75595 174.6250014,-1.51191 3.02381,5.29167 3.02381,-0.75595 h 3.77976 l 3.02381,-2.26786 4.53571,-1.5119 H 349.25 l 6.80357,3.77976 3.02382,-3.77976 204.10712,-0.75596 3.77976,4.53572 3.77978,-3.02381 h 82.39879 l 58.89913,-1.44675 v 0 0 l -0.6908,52.851507 -2.26785,6.047621 1.51191,3.023809 1.51191,15.875 -4.53572,3.023809 4.53572,3.023809 -0.75597,61.988096 -2.26785,15.875 v 12.095236 l 3.02382,9.827382 V 191.16667 l -6.04763,6.80357 5.29166,6.04761 1.51191,195.79167 -6.04761,8.31548 5.29167,6.04761 -0.75597,120.19642 -2.26785,17.38691 2.26785,7.55954 v 127 l -3.02379,9.07142 4.5357,6.04761 -0.82113,44.53607 v 0"
       id="path4489"
       inkscape:connector-curvature="0" />
    <path
       style="fill:none;stroke:#000000;stroke-width:0.26458332px;stroke-linecap:butt;stroke-linejoin:miter;stroke-opacity:1"
       d="M 712.04195,745.97058 Z"
       id="path4491"
       inkscape:connector-curvature="0" />
  </g>
</svg>
