<?xml version="1.0" encoding="UTF-8" standalone="no"?>
<!-- Created with Inkscape (http://www.inkscape.org/) -->

<svg
   xmlns:dc="http://purl.org/dc/elements/1.1/"
   xmlns:cc="http://creativecommons.org/ns#"
   xmlns:rdf="http://www.w3.org/1999/02/22-rdf-syntax-ns#"
   xmlns:svg="http://www.w3.org/2000/svg"
   xmlns="http://www.w3.org/2000/svg"
   xmlns:sodipodi="http://sodipodi.sourceforge.net/DTD/sodipodi-0.dtd"
   xmlns:inkscape="http://www.inkscape.org/namespaces/inkscape"
   width="34.46611mm"
   height="8.4516811mm"
   viewBox="0 0 34.46611 8.4516811"
   version="1.1"
   id="svg5181"
   inkscape:version="0.92.1 r15371"
   sodipodi:docname="bg.svg">
  <defs
     id="defs5175" />
  <sodipodi:namedview
     id="base"
     pagecolor="#ffffff"
     bordercolor="#666666"
     borderopacity="1.0"
     inkscape:pageopacity="0.0"
     inkscape:pageshadow="2"
     inkscape:zoom="10.002639"
     inkscape:cx="71.816165"
     inkscape:cy="15.971681"
     inkscape:document-units="mm"
     inkscape:current-layer="layer1"
     showgrid="false"
     inkscape:window-width="1920"
     inkscape:window-height="1017"
     inkscape:window-x="-8"
     inkscape:window-y="-8"
     inkscape:window-maximized="1"
     showguides="true"
     inkscape:guide-bbox="true" />
  <metadata
     id="metadata5178">
    <rdf:RDF>
      <cc:Work
         rdf:about="">
        <dc:format>image/svg+xml</dc:format>
        <dc:type
           rdf:resource="http://purl.org/dc/dcmitype/StillImage" />
        <dc:title></dc:title>
      </cc:Work>
    </rdf:RDF>
  </metadata>
  <g
     inkscape:label="Ebene 1"
     inkscape:groupmode="layer"
     id="layer1"
     transform="translate(-3.1776582,-4.0003498)">
    <path
       inkscape:connector-curvature="0"
       style="display:inline;opacity:0.99500002;fill:#f1e2c3;fill-opacity:1;stroke:none;stroke-width:0.18362083;stroke-miterlimit:4;stroke-dasharray:none;stroke-opacity:1"
       d="M 3.1776582,4.0003498 V 12.452031 H 37.64377 V 4.0003498 Z m 5.465816,1.100192 0.120923,0.459403 0.435116,-0.04858 0.04858,-0.289905 16.3426708,0.01757 5.774326,0.0067 0.314192,0.531751 0.217557,-0.580327 2.634983,-0.04806 0.09663,0.337964 h 0.241845 v 1.087789 l -0.266133,0.169499 -0.02429,0.435115 0.387056,0.144694 -0.04858,3.1667322 -0.338479,0.02429 -0.02376,0.241329 -0.217556,0.02429 -0.02429,0.266134 H 18.433062 l -0.241329,-0.580329 -0.241846,0.120923 -0.266134,-0.120923 -0.265616,0.556039 -12.0860838,0.02429 -0.120923,-0.314192 -0.483175,-0.02429 -0.02429,-2.9972352 0.410828,-0.145211 -0.483175,-0.483174 0.04806,-1.450558 0.289905,-0.07235 -0.09664,-0.410828 z"
       id="rect5146" />
    <path
       id="path4495-1-9"
       d="m 4.6792992,5.6325108 0.290063,-0.07252 -0.09669,-0.410922 3.770819,-0.04834 0.120859,0.459266 0.435094,-0.04834 0.04834,-0.290063 16.3428968,0.01786 5.774405,0.0063 0.314232,0.531782 0.217548,-0.580127 2.63474,-0.04834 0.09669,0.338408 h 0.241716 v 1.087735 l -0.265891,0.169206 -0.02418,0.435093 0.386752,0.145032 -0.04834,3.1665202 -0.338407,0.02417 -0.02418,0.24172 -0.217546,0.02417 -0.02418,0.26589 H 18.433087 l -0.241721,-0.580126 -0.241718,0.120859 -0.265892,-0.120859 -0.26589,0.555954 -12.0859568,0.02417 -0.12086,-0.314235 -0.483438,-0.02417 -0.02417,-2.9973172 0.410954,-0.145033 -0.483438,-0.483438 z"
       style="display:inline;fill:none;fill-opacity:1;stroke:#9a8d7a;stroke-width:0.26458332px;stroke-linecap:butt;stroke-linejoin:miter;stroke-opacity:1"
       inkscape:connector-curvature="0"
       sodipodi:nodetypes="ccccccccccccccccccccccccccccccccccc" />
  </g>
</svg>
