<?xml version="1.0" encoding="UTF-8" standalone="no"?>
<svg
   xmlns:dc="http://purl.org/dc/elements/1.1/"
   xmlns:cc="http://creativecommons.org/ns#"
   xmlns:rdf="http://www.w3.org/1999/02/22-rdf-syntax-ns#"
   xmlns:svg="http://www.w3.org/2000/svg"
   xmlns="http://www.w3.org/2000/svg"
   xmlns:xlink="http://www.w3.org/1999/xlink"
   xmlns:sodipodi="http://sodipodi.sourceforge.net/DTD/sodipodi-0.dtd"
   xmlns:inkscape="http://www.inkscape.org/namespaces/inkscape"
   id="svg4605"
   version="1.1"
   viewBox="0 0 30.603565 6.2123699"
   height="6.2123699mm"
   width="30.603565mm"
   sodipodi:docname="button-t.svg"
   inkscape:version="0.92.1 r15371">
  <sodipodi:namedview
     pagecolor="#ffffff"
     bordercolor="#666666"
     borderopacity="1"
     objecttolerance="10"
     gridtolerance="10"
     guidetolerance="10"
     inkscape:pageopacity="0"
     inkscape:pageshadow="2"
     inkscape:window-width="1920"
     inkscape:window-height="1017"
     id="namedview4494"
     showgrid="false"
     inkscape:zoom="11.265095"
     inkscape:cx="19.377308"
     inkscape:cy="4.6383296"
     inkscape:window-x="-8"
     inkscape:window-y="-8"
     inkscape:window-maximized="1"
     inkscape:current-layer="layer5" />
  <defs
     id="defs4599">
    <linearGradient
       gradientUnits="userSpaceOnUse"
       y2="50.910206"
       x2="58.016235"
       y1="39.490406"
       x1="58.008942"
       id="linearGradient4583"
       xlink:href="#linearGradient4581"
       gradientTransform="matrix(0.26458333,0,0,0.26458333,9.4038885,25.21184)" />
    <linearGradient
       id="linearGradient4581">
      <stop
         id="stop4577"
         offset="0"
         style="stop-color:#cdad74;stop-opacity:1" />
      <stop
         id="stop4579"
         offset="1"
         style="stop-color:#dcc484;stop-opacity:1" />
    </linearGradient>
  </defs>
  <metadata
     id="metadata4602">
    <rdf:RDF>
      <cc:Work
         rdf:about="">
        <dc:format>image/svg+xml</dc:format>
        <dc:type
           rdf:resource="http://purl.org/dc/dcmitype/StillImage" />
        <dc:title></dc:title>
      </cc:Work>
    </rdf:RDF>
  </metadata>
  <g
     inkscape:groupmode="layer"
     id="layer3"
     inkscape:label="Layer 1"
     style="display:inline">
    <path
       style="opacity:0.99500002;fill:#f1e2c3;fill-opacity:1;stroke:none;stroke-width:0.69399995;stroke-miterlimit:4;stroke-dasharray:none;stroke-opacity:1"
       d="M -1.8691406 -3.4804688 L -1.8691406 28.462891 L 128.39648 28.462891 L 128.39648 -3.4804688 L -1.8691406 -3.4804688 z M 18.789062 0.67773438 L 19.246094 2.4140625 L 20.890625 2.2304688 L 21.074219 1.1347656 L 82.841797 1.2011719 L 104.66602 1.2265625 L 105.85352 3.2363281 L 106.67578 1.0429688 L 116.63477 0.86132812 L 117 2.1386719 L 117.91406 2.1386719 L 117.91406 6.25 L 116.9082 6.890625 L 116.81641 8.5351562 L 118.2793 9.0820312 L 118.0957 21.050781 L 116.81641 21.142578 L 116.72656 22.054688 L 115.9043 22.146484 L 115.8125 23.152344 L 55.789062 23.152344 L 54.876953 20.958984 L 53.962891 21.416016 L 52.957031 20.958984 L 51.953125 23.060547 L 6.2734375 23.152344 L 5.8164062 21.964844 L 3.9902344 21.873047 L 3.8984375 10.544922 L 5.4511719 9.9960938 L 3.625 8.1699219 L 3.8066406 2.6875 L 4.9023438 2.4140625 L 4.5371094 0.86132812 L 18.789062 0.67773438 z "
       transform="scale(0.26458333)"
       id="rect5146" />
  </g>
  <g
     inkscape:groupmode="layer"
     id="layer4"
     inkscape:label="Layer 2"
     style="display:inline" />
  <g
     inkscape:groupmode="layer"
     id="layer5"
     inkscape:label="Layer 3">
    <path
       id="path4495-1-9"
       d="m 1.0070973,0.71128699 0.2900629,-0.07252 -0.09669,-0.410922 3.770819,-0.04834 0.120859,0.459266 0.435094,-0.04834 0.04834,-0.290063 16.3428968,0.01786 5.774405,0.0063 0.314232,0.531782 0.217549,-0.580127 2.634739,-0.04834 0.09669,0.338408 H 31.19781 V 1.653986 l -0.265891,0.169205 -0.02418,0.435094 0.386752,0.145031 -0.04834,3.16652 -0.338407,0.02417 -0.02418,0.24172 -0.217546,0.02417 -0.02418,0.26589 H 14.760885 L 14.519165,5.545661 14.277446,5.66652 14.011555,5.545661 13.745664,6.101615 1.6597073,6.125785 1.5388473,5.81155 1.0554093,5.78738 1.0312393,2.790063 1.4421933,2.64503 0.95875521,2.161592 Z"
       style="display:inline;fill:none;fill-opacity:1;stroke:#9a8d7a;stroke-width:0.26458332px;stroke-linecap:butt;stroke-linejoin:miter;stroke-opacity:1"
       inkscape:connector-curvature="0"
       sodipodi:nodetypes="ccccccccccccccccccccccccccccccccccc" />
  </g>
</svg>
