<?xml version="1.0" encoding="UTF-8" standalone="no"?>
<svg
   xmlns:dc="http://purl.org/dc/elements/1.1/"
   xmlns:cc="http://creativecommons.org/ns#"
   xmlns:rdf="http://www.w3.org/1999/02/22-rdf-syntax-ns#"
   xmlns:svg="http://www.w3.org/2000/svg"
   xmlns="http://www.w3.org/2000/svg"
   xmlns:xlink="http://www.w3.org/1999/xlink"
   id="svg4605"
   version="1.1"
   viewBox="0 0 30.603565 6.2123699"
   height="6.2123699mm"
   width="30.603565mm">
  <defs
     id="defs4599">
    <linearGradient
       gradientUnits="userSpaceOnUse"
       y2="50.910206"
       x2="58.016235"
       y1="39.490406"
       x1="58.008942"
       id="linearGradient4583"
       xlink:href="#linearGradient4581"
       gradientTransform="matrix(0.26458333,0,0,0.26458333,9.4038885,25.21184)" />
    <linearGradient
       id="linearGradient4581">
      <stop
         id="stop4577"
         offset="0"
         style="stop-color:#cdad74;stop-opacity:1" />
      <stop
         id="stop4579"
         offset="1"
         style="stop-color:#dcc484;stop-opacity:1" />
    </linearGradient>
  </defs>
  <metadata
     id="metadata4602">
    <rdf:RDF>
      <cc:Work
         rdf:about="">
        <dc:format>image/svg+xml</dc:format>
        <dc:type
           rdf:resource="http://purl.org/dc/dcmitype/StillImage" />
        <dc:title></dc:title>
      </cc:Work>
    </rdf:RDF>
  </metadata>
  <g
     transform="translate(-9.6446433,-35.358101)"
     id="layer1">
    <path
       id="path4495"
       d="m 9.8271177,36.023488 c 0,0 0.2900633,-0.07252 0.2900633,-0.07252 0,0 -0.09669,-0.410922 -0.09669,-0.410922 0,0 3.770818,-0.04834 3.770818,-0.04834 0,0 0.12086,0.459266 0.12086,0.459266 0,0 0.435094,-0.04834 0.435094,-0.04834 0,0 0.04834,-0.290063 0.04834,-0.290063 0,0 22.1173,0.02417 22.1173,0.02417 0,0 0.314232,0.531782 0.314232,0.531782 0,0 0.217548,-0.580126 0.217548,-0.580126 0,0 2.63474,-0.04834 2.63474,-0.04834 0,0 0.09669,0.338407 0.09669,0.338407 0,0 0.241714,0 0.241714,0 0,0 0,1.087736 0,1.087736 0,0 -0.26589,0.169204 -0.26589,0.169204 0,0 -0.02418,0.435094 -0.02418,0.435094 0,0 0.386752,0.145031 0.386752,0.145031 0,0 -0.04834,3.166521 -0.04834,3.166521 0,0 -0.338407,0.02417 -0.338407,0.02417 0,0 -0.02418,0.241719 -0.02418,0.241719 0,0 -0.217546,0.02417 -0.217546,0.02417 0,0 -0.02418,0.265891 -0.02418,0.265891 0,0 -15.880952,0 -15.880952,0 0,0 -0.24172,-0.580125 -0.24172,-0.580125 0,0 -0.241719,0.120859 -0.241719,0.120859 0,0 -0.265891,-0.120859 -0.265891,-0.120859 0,0 -0.265891,0.555954 -0.265891,0.555954 0,0 -12.085955,0.02417 -12.085955,0.02417 0,0 -0.12086,-0.314235 -0.12086,-0.314235 0,0 -0.4834381,-0.02417 -0.4834381,-0.02417 0,0 -0.024172,-2.997317 -0.024172,-2.997317 0,0 0.4109541,-0.145033 0.4109541,-0.145033 0,0 -0.4834383,-0.483438 -0.4834383,-0.483438 0,0 0.048344,-1.450316 0.048344,-1.450316 z"
       style="fill:url(#linearGradient4583);fill-opacity:1;stroke:#9a8d7a;stroke-width:0.26458332px;stroke-linecap:butt;stroke-linejoin:miter;stroke-opacity:1" />
  </g>
</svg>
