<?xml version="1.0" encoding="UTF-8" standalone="no"?>
<svg
   xmlns:dc="http://purl.org/dc/elements/1.1/"
   xmlns:cc="http://creativecommons.org/ns#"
   xmlns:rdf="http://www.w3.org/1999/02/22-rdf-syntax-ns#"
   xmlns:svg="http://www.w3.org/2000/svg"
   xmlns="http://www.w3.org/2000/svg"
   id="svg4506"
   style="fill-rule:evenodd;clip-rule:evenodd;stroke-linejoin:round;stroke-miterlimit:1.41421;"
   xml:space="preserve"
   version="1.1"
   viewBox="0 0 31 31"
   height="100%"
   width="100%"><metadata
     id="metadata4512"><rdf:RDF><cc:Work
         rdf:about=""><dc:format>image/svg+xml</dc:format><dc:type
           rdf:resource="http://purl.org/dc/dcmitype/StillImage" /><dc:title></dc:title></cc:Work></rdf:RDF></metadata><defs
     id="defs4510" /><rect
     style="fill:none;"
     height="30"
     width="30.595"
     y="0.317"
     x="0"
     id="Discord" /><clipPath
     id="_clip1"><rect
       id="rect4497"
       height="30"
       width="30.595"
       y="0.317"
       x="0" /></clipPath><g
     id="g4504"
     clip-path="url(#_clip1)"><path
       id="path4500"
       style="fill:#f6efe2;fill-rule:nonzero;fill-opacity:1"
       d="M12.813,12.363c-0.826,0 -1.478,0.724 -1.478,1.608c0,0.883 0.666,1.608 1.478,1.608c0.825,0 1.477,-0.725 1.477,-1.608c0.015,-0.884 -0.652,-1.608 -1.477,-1.608Zm5.287,0c-0.825,0 -1.477,0.724 -1.477,1.608c0,0.883 0.666,1.608 1.477,1.608c0.826,0 1.478,-0.725 1.478,-1.608c0,-0.884 -0.652,-1.608 -1.478,-1.608Z" /><path
       id="path4502"
       style="fill:#f6efe2;fill-rule:nonzero;fill-opacity:1"
       d="M25.141,0.208l-19.412,0c-1.637,0 -2.97,1.333 -2.97,2.985l0,19.585c0,1.652 1.333,2.985 2.97,2.985l16.428,0l-0.768,-2.68l1.854,1.724l1.753,1.622l3.115,2.752l0,-25.988c0,-1.652 -1.333,-2.985 -2.97,-2.985Zm-5.592,18.92c0,0 -0.522,-0.623 -0.956,-1.174c1.898,-0.536 2.622,-1.724 2.622,-1.724c-0.594,0.392 -1.159,0.667 -1.666,0.855c-0.724,0.304 -1.42,0.507 -2.101,0.623c-1.39,0.261 -2.665,0.188 -3.752,-0.014c-0.825,-0.16 -1.535,-0.392 -2.129,-0.623c-0.333,-0.131 -0.695,-0.29 -1.058,-0.493c-0.043,-0.029 -0.087,-0.043 -0.13,-0.072c-0.029,-0.015 -0.044,-0.029 -0.058,-0.044c-0.261,-0.145 -0.406,-0.246 -0.406,-0.246c0,0 0.696,1.159 2.536,1.709c-0.435,0.551 -0.971,1.203 -0.971,1.203c-3.202,-0.102 -4.418,-2.202 -4.418,-2.202c0,-4.665 2.086,-8.446 2.086,-8.446c2.086,-1.564 4.07,-1.521 4.07,-1.521l0.145,0.174c-2.607,0.753 -3.81,1.898 -3.81,1.898c0,0 0.319,-0.174 0.855,-0.42c1.55,-0.681 2.781,-0.87 3.288,-0.913c0.087,-0.015 0.16,-0.029 0.247,-0.029c0.883,-0.116 1.883,-0.145 2.926,-0.029c1.376,0.159 2.854,0.565 4.36,1.391c0,0 -1.144,-1.087 -3.607,-1.84l0.203,-0.232c0,0 1.985,-0.043 4.071,1.521c0,0 2.086,3.781 2.086,8.446c0,0 -1.232,2.1 -4.433,2.202l0,0Z" /></g></svg>