<?xml version="1.0" encoding="UTF-8" standalone="no"?>
<!-- Created with Inkscape (http://www.inkscape.org/) -->

<svg
   xmlns:dc="http://purl.org/dc/elements/1.1/"
   xmlns:cc="http://creativecommons.org/ns#"
   xmlns:rdf="http://www.w3.org/1999/02/22-rdf-syntax-ns#"
   xmlns:svg="http://www.w3.org/2000/svg"
   xmlns="http://www.w3.org/2000/svg"
   xmlns:sodipodi="http://sodipodi.sourceforge.net/DTD/sodipodi-0.dtd"
   xmlns:inkscape="http://www.inkscape.org/namespaces/inkscape"
   width="23.41827mm"
   height="23.41827mm"
   viewBox="0 0 23.41827 23.41827"
   version="1.1"
   id="svg4572"
   inkscape:version="0.92.1 r15371"
   sodipodi:docname="DSAnews.svg">
  <defs
     id="defs4566" />
  <sodipodi:namedview
     id="base"
     pagecolor="#ffffff"
     bordercolor="#666666"
     borderopacity="1.0"
     inkscape:pageopacity="0.0"
     inkscape:pageshadow="2"
     inkscape:zoom="3.959798"
     inkscape:cx="-21.433272"
     inkscape:cy="2.9950947"
     inkscape:document-units="mm"
     inkscape:current-layer="g4511"
     showgrid="false"
     inkscape:window-width="1920"
     inkscape:window-height="1017"
     inkscape:window-x="-8"
     inkscape:window-y="-8"
     inkscape:window-maximized="1" />
  <metadata
     id="metadata4569">
    <rdf:RDF>
      <cc:Work
         rdf:about="">
        <dc:format>image/svg+xml</dc:format>
        <dc:type
           rdf:resource="http://purl.org/dc/dcmitype/StillImage" />
        <dc:title></dc:title>
      </cc:Work>
    </rdf:RDF>
  </metadata>
  <g
     inkscape:label="Ebene 1"
     inkscape:groupmode="layer"
     id="layer1"
     transform="translate(-41.96348,-52.457531)">
    <g
       transform="matrix(0.26458333,0,0,0.26458333,41.596503,51.808773)"
       style="clip-rule:evenodd;fill-rule:evenodd;stroke-linecap:square;stroke-linejoin:round;stroke-miterlimit:1.5"
       id="g4511">
      <g
         id="Ebene3">
        <g
           id="g4494">
          <path
             inkscape:connector-curvature="0"
             d="m 16.562,72.54 h 24"
             style="fill:none;stroke:#7a561c;stroke-width:6px;stroke-opacity:1"
             id="path4486" />
          <path
             inkscape:connector-curvature="0"
             d="m 16.562,54.54 h 24"
             style="fill:none;stroke:#7a561c;stroke-width:6px;stroke-opacity:1"
             id="path4488" />
          <path
             inkscape:connector-curvature="0"
             d="m 16.74,63.74 h 7"
             style="fill:none;stroke:#7a561c;stroke-width:6px;stroke-opacity:1"
             id="path4490" />
          <path
             inkscape:connector-curvature="0"
             d="m 33.516,63.74 h 7"
             style="fill:none;stroke:#7a561c;stroke-width:6px;stroke-opacity:1"
             id="path4492" />
        </g>
        <g
           id="g4504">
          <path
             inkscape:connector-curvature="0"
             d="m 50.562,72.54 h 24"
             style="fill:none;stroke:#7a561c;stroke-width:6px;stroke-opacity:1"
             id="path4496" />
          <path
             inkscape:connector-curvature="0"
             d="m 50.562,54.54 h 24"
             style="fill:none;stroke:#7a561c;stroke-width:6px;stroke-opacity:1"
             id="path4498" />
          <path
             inkscape:connector-curvature="0"
             d="m 50.74,63.74 h 7"
             style="fill:none;stroke:#7a561c;stroke-width:6px;stroke-opacity:1"
             id="path4500" />
          <path
             inkscape:connector-curvature="0"
             d="m 67.516,63.74 h 7"
             style="fill:none;stroke:#7a561c;stroke-width:6px;stroke-opacity:1"
             id="path4502" />
        </g>
        <path
           inkscape:connector-curvature="0"
           id="path3698"
           d="m 17.783,31.671 c -0.211,-0.567 0.016,-1.605 0.47,-2.691 0.454,-1.086 1.136,-2.222 2.125,-3.422 0.989,-1.199 2.286,-2.464 3.534,-3.55 1.249,-1.087 2.449,-1.995 3.616,-2.757 1.167,-0.762 2.303,-1.378 3.318,-1.894 1.015,-0.516 1.936,-0.943 2.86,-1.3 0.924,-0.356 1.865,-0.649 3.097,-0.924 1.232,-0.276 2.756,-0.535 4.199,-0.649 1.443,-0.113 2.806,-0.081 4.508,0 1.702,0.082 3.746,0.211 5.756,0.584 2.01,0.373 3.989,0.989 5.707,1.703 1.141,0.473 2.168,0.99 3.156,1.582 0.5,0.3 0.991,0.62 1.482,0.963 1.459,1.022 2.918,2.254 4.199,3.503 1.281,1.248 2.384,2.513 3.373,3.794 0.989,1.281 1.864,2.578 2.432,3.616 0.567,1.037 0.827,1.815 0.713,2.205 -0.113,0.389 -0.599,0.389 -1.118,0.324 -0.52,-0.065 -1.07,-0.194 -1.768,-0.259 -0.697,-0.065 -1.54,-0.065 -2.286,-0.033 -0.746,0.033 -1.394,0.097 -2.254,0.422 -0.86,0.324 -1.929,0.908 -2.902,1.589 -0.973,0.681 -1.848,1.459 -2.627,2.156 -0.778,0.698 -1.459,1.313 -2.499,1.908 -1.041,0.594 -2.495,1.189 -3.5,1.562 -1.005,0.373 -1.589,0.535 -2.385,0.742 -0.796,0.207 -4.652,0.734 -5.69,0.717 C 44.261,41.546 43.062,41.514 41.975,41.449 40.889,41.384 39.916,41.287 39.028,41.142 38.139,40.997 37.322,40.8 36.497,40.61 35.673,40.42 34.76,40.217 33.9,39.892 33.041,39.568 32.198,39.114 31.436,38.66 30.673,38.206 29.993,37.752 29.328,37.314 28.663,36.877 28.014,36.455 27.333,36.033 26.652,35.612 25.939,35.19 25.307,34.817 24.674,34.444 24.123,34.12 23.507,33.845 22.891,33.569 22.21,33.342 21.496,33.115 20.783,32.888 20.037,32.661 19.34,32.499 18.643,32.337 17.994,32.239 17.783,31.672 Z"
           style="fill:#7a561c;fill-opacity:1;fill-rule:nonzero" />
      </g>
      <g
         id="Ebene2">
        <path
           inkscape:connector-curvature="0"
           d="m 88.142,25.457 c 0,-11.729 -9.522,-21.25 -21.25,-21.25 h -42.5 c -11.728,0 -21.25,9.521 -21.25,21.25 v 42.5 c 0,11.728 9.522,21.25 21.25,21.25 h 42.5 c 11.728,0 21.25,-9.522 21.25,-21.25 z"
           style="fill:none;fill-opacity:1;stroke:#7a561c;stroke-width:3.50999999px;stroke-linecap:round;stroke-opacity:1"
           id="path4508" />
      </g>
    </g>
  </g>
</svg>
