<?xml version="1.0" encoding="UTF-8" standalone="no"?>
<!-- Created with Inkscape (http://www.inkscape.org/) -->

<svg
   xmlns:dc="http://purl.org/dc/elements/1.1/"
   xmlns:cc="http://creativecommons.org/ns#"
   xmlns:rdf="http://www.w3.org/1999/02/22-rdf-syntax-ns#"
   xmlns:svg="http://www.w3.org/2000/svg"
   xmlns="http://www.w3.org/2000/svg"
   xmlns:xlink="http://www.w3.org/1999/xlink"
   xmlns:sodipodi="http://sodipodi.sourceforge.net/DTD/sodipodi-0.dtd"
   xmlns:inkscape="http://www.inkscape.org/namespaces/inkscape"
   width="210mm"
   height="297mm"
   viewBox="0 0 210 297"
   version="1.1"
   id="svg4981"
   inkscape:version="0.92.1 r15371"
   sodipodi:docname="pergament.svg">
  <defs
     id="defs4975">
    <linearGradient
       inkscape:collect="always"
       id="linearGradient5632">
      <stop
         style="stop-color:#d38d5f;stop-opacity:1"
         offset="0"
         id="stop5628" />
      <stop
         style="stop-color:#784421;stop-opacity:1"
         offset="1"
         id="stop5630" />
    </linearGradient>
    <linearGradient
       inkscape:collect="always"
       xlink:href="#linearGradient5632"
       id="linearGradient5636"
       x1="-23.519"
       y1="-67.858834"
       x2="25.61"
       y2="-67.858834"
       gradientUnits="userSpaceOnUse" />
  </defs>
  <sodipodi:namedview
     id="base"
     pagecolor="#ffffff"
     bordercolor="#666666"
     borderopacity="1.0"
     inkscape:pageopacity="0.0"
     inkscape:pageshadow="2"
     inkscape:zoom="0.75722503"
     inkscape:cx="396.85039"
     inkscape:cy="561.25984"
     inkscape:document-units="mm"
     inkscape:current-layer="layer2"
     showgrid="false"
     inkscape:window-width="1920"
     inkscape:window-height="1017"
     inkscape:window-x="-8"
     inkscape:window-y="-8"
     inkscape:window-maximized="1" />
  <metadata
     id="metadata4978">
    <rdf:RDF>
      <cc:Work
         rdf:about="">
        <dc:format>image/svg+xml</dc:format>
        <dc:type
           rdf:resource="http://purl.org/dc/dcmitype/StillImage" />
        <dc:title></dc:title>
      </cc:Work>
    </rdf:RDF>
  </metadata>
  <g
     inkscape:label="Ebene 1"
     inkscape:groupmode="layer"
     id="layer1">
    <g
       id="g4757"
       transform="matrix(0,-0.35277777,0.35277777,0,-31.691156,179.79669)">
      <path
         d="m 0,0 c 9.247,1.532 24.363,-3.195 25.61,-14.13 -0.389,-0.156 -0.688,-0.493 -0.779,-0.974 -3.481,3.676 -8.39,6.403 -13.338,6.714 -0.766,0.052 -0.883,-1.103 -0.181,-1.311 5.376,-1.559 9.597,-3.598 13.402,-7.416 -0.13,-2.753 -0.26,-5.519 -0.377,-8.285 -2.948,4 -8.259,7.389 -13.012,5.961 -0.494,-0.156 -0.559,-0.948 0,-1.065 2.688,-0.585 5.181,-0.598 7.675,-1.961 2.208,-1.195 3.935,-2.909 5.259,-4.987 -0.103,-2.364 -0.194,-4.727 -0.298,-7.104 -3.637,2.948 -8.649,5.26 -13.169,4.74 -0.662,-0.078 -0.935,-1.104 -0.169,-1.273 2.325,-0.493 4.663,-0.636 6.922,-1.454 2.377,-0.844 4.416,-2.104 6.351,-3.636 -0.065,-1.922 -0.156,-3.858 -0.221,-5.78 -4.351,2.338 -9.312,3.559 -14.26,3.39 -1.038,-0.039 -1.051,-1.597 0,-1.623 5.13,-0.117 9.663,-1.156 14.195,-3.312 -0.091,-2.429 -0.182,-4.857 -0.273,-7.273 -2.013,3.117 -5.636,5.689 -9.259,4.766 -0.585,-0.155 -0.598,-1.064 0,-1.207 1.922,-0.481 3.714,-0.611 5.441,-1.715 1.676,-1.077 2.961,-2.623 3.728,-4.441 -0.091,-2.429 -0.169,-4.857 -0.26,-7.286 -3.286,4.052 -8.572,6.234 -13.779,5.442 -0.922,-0.143 -0.715,-1.714 0.22,-1.637 5.039,0.416 9.377,-1.103 12.844,-4.857 0.195,-0.194 0.455,-0.194 0.676,-0.104 -0.065,-1.948 -0.13,-3.896 -0.208,-5.844 -3.104,3 -7.818,5.533 -12.117,4.689 -0.61,-0.13 -0.584,-1.078 0,-1.208 2.013,-0.468 4.052,-0.546 6.013,-1.273 2.299,-0.87 4.312,-2.273 6.039,-4.013 -0.065,-1.961 -0.13,-3.922 -0.208,-5.896 -5.143,3.442 -11.922,5.688 -18.038,4.182 -0.754,-0.182 -0.546,-1.247 0.168,-1.286 6.559,-0.402 12.065,-0.935 17.818,-4.285 -0.039,-1.325 -0.091,-2.637 -0.143,-3.948 -0.025,-0.897 -0.077,-1.793 -0.103,-2.689 -3.234,2.637 -8.208,5.013 -12.208,3.857 -0.533,-0.142 -0.571,-0.974 0,-1.103 1.961,-0.455 3.974,-0.338 5.935,-0.91 2.299,-0.662 4.338,-1.831 6.208,-3.298 -0.091,-2.078 -0.182,-4.169 -0.273,-6.26 -3.455,2.61 -7.883,4.779 -11.883,4.156 -0.636,-0.104 -0.481,-0.974 0,-1.156 2.299,-0.883 4.805,-1.013 7.13,-1.961 1.675,-0.675 3.233,-1.532 4.701,-2.532 -0.078,-1.481 -0.13,-2.961 -0.195,-4.429 -2.727,2.377 -7.623,4.039 -10.272,3.221 -0.507,-0.156 -0.715,-0.961 -0.169,-1.208 1.857,-0.87 4.052,-0.857 5.987,-1.61 1.545,-0.611 2.896,-1.728 4.363,-2.481 -0.078,-1.701 -0.156,-3.389 -0.233,-5.091 -4.26,3.766 -10.819,6.65 -16.13,4.702 -0.727,-0.273 -0.559,-1.208 0.182,-1.299 3,-0.351 5.87,-0.091 8.831,-1.078 2.675,-0.896 4.987,-2.351 7.039,-4.221 -0.065,-1.376 -0.13,-2.74 -0.182,-4.104 -2.909,2.234 -7,3.819 -10.351,2.844 -0.571,-0.155 -0.636,-1.09 0,-1.207 1.857,-0.377 3.74,-0.312 5.585,-0.844 1.74,-0.507 3.259,-1.312 4.701,-2.312 -0.104,-2.649 -0.208,-5.299 -0.299,-7.935 -3.662,5.727 -12.402,10.883 -19.026,8.247 -0.727,-0.286 -0.597,-1.247 0.182,-1.338 3.52,-0.403 6.662,-0.091 10.039,-1.571 3.545,-1.559 6.13,-4.052 8.325,-7.195 0.117,-0.169 0.259,-0.26 0.415,-0.286 -0.052,-1.974 -0.13,-3.935 -0.169,-5.909 -1.675,2.338 -3.818,4.26 -6.35,5.649 -2.234,1.234 -5.714,2.883 -8.247,2 -0.506,-0.169 -0.675,-0.896 -0.156,-1.181 2.273,-1.234 5.078,-1.182 7.468,-2.416 2.597,-1.351 4.649,-3.286 6.441,-5.571 0.221,-0.273 0.533,-0.299 0.805,-0.182 -0.039,-2.143 -0.078,-4.286 -0.09,-6.429 -4.754,8.117 -16.169,11.753 -25.468,10.403 -7.259,-1.052 -14.103,-4.909 -18.324,-10.572 0.143,2.065 0.26,4.13 0.376,6.195 1.598,1.662 2.974,3.468 4.883,4.857 2.247,1.624 4.676,2.468 7.273,3.39 0.831,0.286 0.779,1.792 -0.234,1.649 -4.129,-0.545 -9.246,-3.428 -11.805,-7.285 0.091,1.987 0.169,3.974 0.234,5.948 1.442,1.064 2.87,2.168 4.468,2.961 1.922,0.948 3.909,1.142 5.883,1.805 0.753,0.246 0.571,1.246 -0.169,1.324 -3.52,0.338 -7.857,-2.052 -10.143,-4.896 0.052,1.987 0.091,3.961 0.143,5.948 0.974,0.65 2.013,1.208 3.117,1.624 1.194,0.454 2.532,0.584 3.675,1.156 0.351,0.181 0.299,0.844 -0.13,0.909 -2.169,0.337 -4.61,-0.806 -6.623,-2.156 0.052,2.195 0.091,4.389 0.13,6.584 2.597,3.052 6,4.013 9.974,4.805 0.532,0.104 0.558,1.013 0,1.091 -3.689,0.533 -7.364,-1.441 -9.948,-4.156 0.039,2.117 0.078,4.221 0.104,6.325 0.441,0.312 0.909,0.584 1.389,0.831 v -0.156 c -0.013,-0.065 0.104,-0.065 0.091,0 v 0.195 c 0.377,0.182 0.766,0.364 1.195,0.494 1.234,0.415 2.493,0.376 3.753,0.61 0.649,0.117 0.61,1.13 0,1.286 -2.117,0.506 -4.532,-0.351 -6.402,-1.702 0.038,2.104 0.09,4.221 0.129,6.325 0.741,0.87 1.637,1.584 2.676,2.091 1.389,0.662 2.844,0.428 4.22,0.935 0.351,0.13 0.52,0.688 0.104,0.883 -1.428,0.688 -3.363,-0.052 -4.701,-0.727 -0.857,-0.429 -1.61,-0.987 -2.26,-1.65 0.026,1.351 0.065,2.689 0.104,4.039 0.325,0.156 0.494,0.559 0.156,0.883 -0.61,0.559 2.286,1.156 2.494,1.208 0.883,0.208 1.779,0.416 2.662,0.624 1.688,0.402 3.48,0.675 5.039,1.454 0.558,0.286 0.298,1.208 -0.312,1.182 -1.623,-0.052 -3.195,-0.61 -4.766,-1.039 -1.507,-0.403 -3.234,-0.701 -4.675,-1.325 -0.169,-0.078 -0.338,-0.181 -0.52,-0.298 0,0.117 0,0.246 0.013,0.363 0.039,1.507 0.091,3.026 0.143,4.546 2.364,1.623 4.883,2.883 7.701,3.636 3.299,0.87 6.377,0.493 9.701,0.675 0.78,0.039 0.91,1.065 0.182,1.325 -5.701,1.974 -12.714,-0.507 -17.532,-4.104 0.065,1.961 0.13,3.922 0.195,5.883 1,1.195 2.285,2.117 3.753,2.637 1.493,0.532 2.922,0.324 4.454,0.48 0.585,0.052 0.987,0.909 0.338,1.234 -2.87,1.376 -6.337,-0.234 -8.48,-2.52 0.078,2.299 0.156,4.611 0.233,6.909 1.143,1.208 2.507,2.156 4.091,2.715 1.741,0.623 3.416,0.441 5.208,0.61 0.831,0.065 0.961,1.117 0.195,1.416 -3.156,1.22 -6.857,-0.364 -9.429,-2.598 0.065,2 0.143,4.013 0.208,6.026 2.675,1.688 5.468,3.078 8.533,4 3.155,0.948 6.402,1.013 9.61,1.675 0.545,0.104 0.584,1.052 0,1.143 -6.091,0.87 -12.896,-1.883 -18.091,-5.324 0.065,2.194 0.143,4.376 0.221,6.571 1.299,1.182 2.74,2.117 4.441,2.662 1.715,0.546 3.455,0.377 5.182,0.715 0.429,0.077 0.559,0.805 0.13,0.987 -3.143,1.376 -7.078,-0.325 -9.701,-2.637 l 0.156,4.714 c 3.571,2.364 7.22,3.65 11.467,4.221 0.649,0.091 0.494,1.182 -0.156,1.143 -4.065,-0.286 -8.078,-1.922 -11.285,-4.454 0.091,2.35 0.169,4.688 0.246,7.038 3.572,4.507 8.195,5.845 13.78,6.481 0.61,0.065 0.896,1.039 0.168,1.182 -5.194,0.974 -10.584,-1.987 -13.896,-5.974 0.078,2.182 0.143,4.363 0.221,6.545 3.948,5.662 9.597,9.247 16.468,10.636 0.805,0.156 0.636,1.533 -0.195,1.442 -6.494,-0.779 -12.364,-4.299 -16.195,-9.507 0.052,1.234 0.091,2.481 0.13,3.728 0.156,0.091 0.286,0.208 0.403,0.376 C -14.649,-7.662 -9.247,-1.519 0,0"
         style="fill:url(#linearGradient5636);fill-opacity:1;fill-rule:nonzero;stroke:none;stroke-opacity:1"
         id="path4759"
         inkscape:connector-curvature="0" />
    </g>
    <g
       id="g4761"
       transform="matrix(0,-0.35277777,0.35277777,0,-76.791256,180.6351)">
      <path
         d="M 0,0 C 3.208,0.143 6.662,-0.312 9.883,-1.377 L 9.753,-1.779 C 9.415,-1.675 9.039,-1.766 8.883,-2.104 8.013,-4.052 8.13,-6.195 7.987,-8.299 7.87,-9.883 7.766,-11.467 7.662,-13.052 c -2.428,1.922 -5.987,2.143 -8.623,0.026 -0.13,-0.104 -0.234,-0.208 -0.338,-0.312 0.104,1.195 0.247,2.39 0.364,3.572 0.506,0.195 0.987,0.402 1.558,0.441 0.909,0.078 1.819,-0.077 2.637,-0.467 0.714,-0.325 1.337,0.675 0.623,1.078 C 2.623,-8 0.792,-7.623 -0.753,-8 c 0.117,1.078 0.233,2.156 0.337,3.234 0.182,0.065 0.364,0.117 0.546,0.156 1.065,0.194 2.13,0.026 3.091,-0.429 0.649,-0.299 1.22,0.61 0.571,0.974 -1.026,0.598 -2.156,0.935 -3.35,0.922 -0.208,-0.013 -0.455,-0.013 -0.689,-0.039 0.091,0.922 0.182,1.844 0.286,2.779 C 0.052,-0.247 0.026,-0.117 0,0"
         style="fill:#f4ece1;fill-opacity:1;fill-rule:nonzero;stroke:none"
         id="path4763"
         inkscape:connector-curvature="0" />
    </g>
    <g
       id="g4765"
       transform="matrix(0,-0.35277777,0.35277777,0,-77.418916,177.19443)">
      <path
         d="M 0,0 0.13,0.403 C 7.065,-1.896 12.883,-7 12.571,-14.961 12.286,-22.26 6.052,-26.948 -1.026,-26.324 c -3.428,0.298 -7.325,1.987 -9.104,5.103 -2.909,5.091 3.234,13.689 7.896,7.948 -0.026,-0.376 -0.052,-0.766 -0.078,-1.142 -0.052,-0.845 1.364,-1.052 1.481,-0.208 0.013,0.104 0.026,0.221 0.039,0.324 0.402,0.143 0.688,0.572 0.415,1.052 -0.078,0.117 -0.155,0.234 -0.233,0.351 0.233,1.779 0.467,3.545 0.688,5.325 0.273,2.298 0.974,4.779 0.441,7.064 C 0.468,-0.247 0.247,-0.078 0,0"
         style="fill:#784421;fill-opacity:1;fill-rule:nonzero;stroke:none"
         id="path4767"
         inkscape:connector-curvature="0" />
    </g>
    <g
       id="g4769"
       transform="matrix(0,-0.35277777,0.35277777,0,-85.321956,107.21686)">
      <path
         d="m 0,0 c -0.247,0.065 -0.494,0.104 -0.74,0.143 -0.234,-2.078 -0.533,-4.156 -0.831,-6.234 -0.026,-0.195 -0.117,-1.324 -0.299,-2.389 0.091,-0.065 0.182,-0.143 0.273,-0.247 3.311,-3.922 6.935,0.597 6.649,4.091 C 4.883,-2.558 1.442,-0.416 0,0 M 9.636,9.493 C 10.402,4.987 9.519,0.221 7.818,-4.143 c 0.559,-1.987 0.403,-4.13 -0.883,-5.974 -2.455,-3.519 -7.818,-3.831 -10.532,-0.61 -0.351,0.402 -0.416,0.87 -0.312,1.286 -0.091,1.246 0.364,3.09 0.454,4.077 0.169,1.884 0.338,3.78 0.572,5.663 -2.338,-0.091 -4.779,-0.883 -6.688,-1.922 -6.39,-3.442 -7.546,-10.247 -1.831,-14.883 8.467,-6.857 24.428,-6.753 31.713,1.753 9,10.506 -0.844,19.87 -10.675,24.246 m -4.961,1.793 c -5.324,1.467 -10.831,1.987 -16.35,1.974 0.117,-1.013 0.143,-2.065 0.117,-3.13 0.896,0.636 1.909,1.104 2.987,1.389 1.389,0.364 3.454,0.754 4.675,-0.181 0.377,-0.286 0.429,-1 -0.143,-1.117 -1.299,-0.247 -2.584,0.233 -3.922,0.026 -1.364,-0.208 -2.571,-0.819 -3.675,-1.611 -0.13,-1.519 -0.377,-3.065 -0.702,-4.61 2.052,2.221 5.728,3.844 8.468,2.428 C -3.156,6.091 -3.558,5.091 -4.247,5.052 -5.74,4.961 -7.052,5.273 -8.532,4.818 -10.039,4.351 -11.338,3.416 -12.402,2.299 -12.506,2.182 -12.636,2.143 -12.766,2.156 -13.026,1.13 -13.299,0.104 -13.61,-0.909 -8.961,2.922 -1.805,4.532 3.208,1.727 4.442,1.026 5.558,0 6.403,-1.208 7.065,2.221 7.416,5.688 7.87,9.338 7.909,9.636 8.104,9.883 8.338,10.039 7.091,10.532 5.857,10.961 4.675,11.286 m -202.907,11.519 c -3.22,1.065 -6.675,1.519 -9.883,1.377 0.026,-0.117 0.052,-0.247 0.039,-0.403 -0.104,-0.935 -0.195,-1.857 -0.285,-2.779 0.233,0.026 0.48,0.026 0.688,0.039 1.195,0.013 2.324,-0.325 3.35,-0.922 0.65,-0.364 0.078,-1.273 -0.571,-0.974 -0.961,0.454 -2.026,0.623 -3.091,0.428 -0.182,-0.039 -0.363,-0.091 -0.545,-0.156 -0.104,-1.078 -0.221,-2.155 -0.338,-3.233 1.545,0.376 3.377,0 4.636,-0.715 0.715,-0.402 0.091,-1.402 -0.623,-1.078 -0.818,0.39 -1.727,0.546 -2.636,0.468 -0.572,-0.039 -1.052,-0.247 -1.559,-0.442 -0.117,-1.181 -0.26,-2.376 -0.363,-3.571 0.103,0.104 0.207,0.208 0.337,0.312 2.637,2.117 6.195,1.896 8.624,-0.026 0.103,1.584 0.207,3.169 0.324,4.753 0.143,2.104 0.026,4.247 0.896,6.195 0.156,0.337 0.533,0.428 0.87,0.324 0.247,-0.078 0.468,-0.246 0.52,-0.506 0.532,-2.286 -0.169,-4.766 -0.442,-7.065 -0.22,-1.779 -0.454,-3.545 -0.688,-5.325 0.078,-0.116 0.156,-0.233 0.234,-0.35 0.273,-0.481 -0.013,-0.909 -0.416,-1.052 -0.013,-0.104 -0.026,-0.221 -0.039,-0.325 -0.117,-0.844 -1.532,-0.636 -1.48,0.208 0.026,0.377 0.052,0.766 0.078,1.143 -4.663,5.74 -10.805,-2.857 -7.896,-7.948 1.779,-3.117 5.675,-4.805 9.103,-5.104 7.078,-0.623 13.312,4.065 13.598,11.363 0.311,7.961 -5.507,13.065 -12.442,15.364 m 18.104,115.09 c -1.247,10.935 -16.363,15.662 -25.61,14.129 -9.247,-1.519 -14.649,-7.662 -19.325,-15.181 -0.116,-0.169 -0.246,-0.286 -0.402,-0.377 -0.039,-1.247 -0.078,-2.493 -0.13,-3.727 3.831,5.208 9.701,8.727 16.195,9.506 0.831,0.091 1,-1.285 0.194,-1.441 -6.87,-1.39 -12.519,-4.974 -16.467,-10.636 -0.078,-2.182 -0.143,-4.364 -0.221,-6.546 3.312,3.987 8.701,6.948 13.896,5.974 0.727,-0.143 0.442,-1.117 -0.169,-1.182 -5.584,-0.636 -10.207,-1.974 -13.779,-6.48 -0.078,-2.351 -0.156,-4.688 -0.246,-7.039 3.207,2.532 7.22,4.169 11.285,4.454 0.649,0.039 0.805,-1.052 0.156,-1.142 -4.247,-0.572 -7.896,-1.858 -11.467,-4.221 l -0.156,-4.714 c 2.623,2.311 6.558,4.013 9.701,2.636 0.428,-0.182 0.299,-0.909 -0.13,-0.987 -1.727,-0.338 -3.467,-0.169 -5.182,-0.714 -1.701,-0.546 -3.143,-1.481 -4.441,-2.663 -0.078,-2.194 -0.156,-4.376 -0.221,-6.571 5.195,3.442 12,6.195 18.091,5.325 0.584,-0.091 0.545,-1.039 0,-1.143 -3.208,-0.663 -6.455,-0.727 -9.611,-1.676 -3.064,-0.922 -5.857,-2.311 -8.532,-3.999 -0.065,-2.013 -0.143,-4.026 -0.208,-6.026 2.572,2.233 6.273,3.818 9.429,2.597 0.766,-0.299 0.636,-1.351 -0.195,-1.416 -1.792,-0.168 -3.468,0.013 -5.208,-0.61 -1.584,-0.558 -2.948,-1.506 -4.091,-2.714 -0.078,-2.299 -0.156,-4.611 -0.233,-6.909 2.142,2.285 5.61,3.896 8.48,2.519 0.649,-0.324 0.247,-1.182 -0.338,-1.234 -1.532,-0.155 -2.961,0.052 -4.454,-0.48 -1.468,-0.52 -2.753,-1.442 -3.753,-2.636 -0.065,-1.961 -0.13,-3.922 -0.195,-5.883 4.818,3.597 11.831,6.077 17.532,4.103 0.727,-0.259 0.598,-1.285 -0.182,-1.324 -3.324,-0.182 -6.402,0.195 -9.701,-0.676 -2.818,-0.753 -5.338,-2.013 -7.701,-3.636 -0.052,-1.519 -0.104,-3.039 -0.143,-4.545 -0.013,-0.117 -0.013,-0.247 -0.013,-0.364 0.182,0.117 0.351,0.221 0.519,0.299 1.442,0.623 3.169,0.922 4.676,1.324 1.571,0.429 3.143,0.987 4.766,1.039 0.61,0.026 0.87,-0.896 0.312,-1.181 -1.559,-0.78 -3.351,-1.052 -5.039,-1.455 -0.883,-0.208 -1.779,-0.416 -2.663,-0.623 -0.207,-0.052 -3.103,-0.65 -2.493,-1.208 0.338,-0.325 0.169,-0.727 -0.156,-0.883 -0.039,-1.351 -0.078,-2.689 -0.104,-4.039 0.65,0.662 1.403,1.221 2.26,1.649 1.338,0.675 3.273,1.416 4.701,0.727 0.416,-0.194 0.247,-0.753 -0.104,-0.883 -1.376,-0.506 -2.831,-0.272 -4.22,-0.935 -1.039,-0.506 -1.936,-1.22 -2.676,-2.091 -0.039,-2.103 -0.091,-4.22 -0.13,-6.324 1.87,1.35 4.286,2.208 6.403,1.701 0.61,-0.156 0.649,-1.169 0,-1.286 -1.26,-0.233 -2.52,-0.194 -3.753,-0.61 -0.429,-0.13 -0.818,-0.312 -1.195,-0.494 v -0.194 c 0.013,-0.065 -0.104,-0.065 -0.091,0 v 0.156 c -0.481,-0.247 -0.948,-0.52 -1.39,-0.832 -0.026,-2.104 -0.065,-4.207 -0.103,-6.324 2.584,2.714 6.259,4.688 9.947,4.156 0.559,-0.078 0.533,-0.987 0,-1.091 -3.974,-0.793 -7.376,-1.754 -9.973,-4.806 -0.039,-2.194 -0.078,-4.389 -0.13,-6.584 2.013,1.351 4.454,2.494 6.623,2.156 0.429,-0.065 0.48,-0.727 0.13,-0.909 -1.143,-0.572 -2.481,-0.701 -3.675,-1.156 -1.104,-0.416 -2.143,-0.974 -3.117,-1.623 -0.052,-1.987 -0.091,-3.961 -0.143,-5.948 2.286,2.844 6.623,5.233 10.143,4.896 0.74,-0.078 0.922,-1.078 0.168,-1.325 -1.974,-0.662 -3.961,-0.857 -5.883,-1.805 -1.597,-0.792 -3.026,-1.896 -4.467,-2.961 -0.065,-1.974 -0.143,-3.961 -0.234,-5.948 2.559,3.857 7.675,6.74 11.805,7.286 1.013,0.142 1.065,-1.364 0.234,-1.65 -2.597,-0.922 -5.026,-1.766 -7.273,-3.389 -1.909,-1.39 -3.285,-3.195 -4.883,-4.857 -0.117,-2.065 -0.234,-4.13 -0.376,-6.195 4.22,5.662 11.064,9.519 18.324,10.571 9.299,1.351 20.714,-2.286 25.467,-10.402 0.013,2.142 0.052,4.285 0.091,6.428 -0.272,-0.117 -0.584,-0.091 -0.805,0.182 -1.792,2.286 -3.844,4.221 -6.441,5.571 -2.39,1.234 -5.195,1.182 -7.468,2.416 -0.519,0.286 -0.35,1.013 0.156,1.182 2.532,0.883 6.013,-0.767 8.247,-2 2.532,-1.39 4.675,-3.312 6.35,-5.65 0.039,1.974 0.117,3.935 0.169,5.909 -0.156,0.026 -0.299,0.117 -0.415,0.286 -2.195,3.143 -4.78,5.636 -8.325,7.195 -3.377,1.48 -6.519,1.169 -10.039,1.571 -0.779,0.091 -0.909,1.052 -0.182,1.338 6.624,2.636 15.364,-2.519 19.026,-8.247 0.091,2.637 0.195,5.286 0.299,7.935 -1.442,1 -2.961,1.805 -4.702,2.312 -1.844,0.532 -3.727,0.467 -5.584,0.844 -0.636,0.117 -0.571,1.052 0,1.208 3.351,0.974 7.442,-0.611 10.351,-2.844 0.052,1.363 0.117,2.727 0.181,4.104 -2.051,1.87 -4.363,3.324 -7.038,4.22 -2.961,0.987 -5.832,0.728 -8.831,1.078 -0.741,0.091 -0.91,1.026 -0.182,1.299 5.311,1.948 11.87,-0.935 16.129,-4.701 0.078,1.701 0.156,3.389 0.234,5.091 -1.467,0.753 -2.818,1.87 -4.363,2.48 -1.935,0.753 -4.13,0.74 -5.987,1.61 -0.546,0.247 -0.338,1.052 0.168,1.208 2.65,0.818 7.546,-0.844 10.273,-3.221 0.065,1.468 0.117,2.948 0.195,4.429 -1.468,1 -3.026,1.857 -4.701,2.532 -2.325,0.948 -4.832,1.078 -7.13,1.961 -0.481,0.182 -0.637,1.052 0,1.156 4,0.624 8.428,-1.545 11.883,-4.156 0.091,2.091 0.182,4.182 0.273,6.26 -1.871,1.468 -3.91,2.636 -6.208,3.299 -1.961,0.571 -3.974,0.454 -5.935,0.909 -0.572,0.13 -0.533,0.961 0,1.104 4,1.156 8.974,-1.221 12.207,-3.857 0.026,0.896 0.078,1.792 0.104,2.688 0.052,1.312 0.104,2.623 0.143,3.948 -5.753,3.351 -11.259,3.883 -17.818,4.286 -0.714,0.039 -0.922,1.104 -0.169,1.285 6.117,1.507 12.896,-0.74 18.039,-4.181 0.078,1.974 0.143,3.935 0.208,5.896 -1.727,1.74 -3.74,3.142 -6.039,4.013 -1.961,0.727 -4,0.805 -6.013,1.272 -0.584,0.13 -0.61,1.078 0,1.208 4.299,0.844 9.013,-1.688 12.117,-4.688 0.078,1.948 0.143,3.896 0.208,5.844 -0.221,-0.091 -0.481,-0.091 -0.676,0.104 -3.467,3.753 -7.805,5.272 -12.844,4.857 -0.935,-0.078 -1.143,1.493 -0.22,1.636 5.207,0.792 10.493,-1.389 13.779,-5.441 0.091,2.428 0.168,4.857 0.259,7.285 -0.766,1.819 -2.052,3.364 -3.727,4.442 -1.727,1.104 -3.519,1.234 -5.441,1.714 -0.598,0.143 -0.585,1.052 0,1.208 3.623,0.922 7.246,-1.649 9.259,-4.766 0.091,2.415 0.182,4.844 0.273,7.272 -4.532,2.156 -9.065,3.195 -14.195,3.312 -1.052,0.026 -1.039,1.584 0,1.623 4.948,0.169 9.909,-1.052 14.26,-3.389 0.065,1.922 0.156,3.857 0.221,5.779 -1.935,1.532 -3.974,2.792 -6.351,3.636 -2.26,0.818 -4.597,0.961 -6.922,1.455 -0.766,0.169 -0.493,1.195 0.169,1.273 4.519,0.519 9.532,-1.793 13.169,-4.741 0.104,2.377 0.194,4.741 0.298,7.104 -1.324,2.078 -3.052,3.792 -5.259,4.987 -2.494,1.364 -4.987,1.377 -7.676,1.961 -0.558,0.117 -0.493,0.909 0,1.065 4.754,1.429 10.065,-1.961 13.013,-5.961 0.117,2.766 0.247,5.533 0.377,8.286 -3.805,3.818 -8.026,5.857 -13.403,7.415 -0.701,0.208 -0.584,1.364 0.182,1.312 4.948,-0.312 9.857,-3.039 13.338,-6.714 0.091,0.48 0.389,0.818 0.779,0.974 m 212.79,11.636 c -32.87,15.805 -70.545,12.74 -105.311,5.935 -18.571,-3.636 -36.947,-8.325 -54.986,-14.039 -16.844,-5.337 -33.467,-13.584 -51.038,-16.065 -0.611,-18.012 -1.442,-36.025 -2.143,-54.038 -0.169,-4.208 -0.299,-8.416 -0.442,-12.623 0.104,-0.091 0.195,-0.182 0.299,-0.273 0.35,-0.351 0.052,-0.818 -0.325,-0.857 -0.493,-15.61 -0.909,-31.273 -2.195,-46.818 0.182,-1.052 0.273,-2.156 0.247,-3.312 -0.234,-12.999 -18.052,-19.181 -26.389,-9.038 -2.221,2.688 -2.974,6.805 -1.559,10.012 0.078,3.689 0.26,7.364 0.559,11.052 -0.039,0.156 -0.026,0.312 0.026,0.455 0.117,1.286 0.234,2.571 0.376,3.857 0.013,0.078 0.052,0.143 0.078,0.221 -0.091,-0.013 -0.182,-0.013 -0.259,-0.026 -8.442,-1.234 -16.663,-6.533 -19.416,-14.688 -0.169,-1.832 -0.35,-3.663 -0.571,-5.481 -0.039,-0.312 -0.182,-0.519 -0.39,-0.662 0.078,-9.364 6.935,-17.805 14.857,-22.286 18.273,-10.363 42.298,-1.389 60.87,3.702 19.857,5.428 39.584,11.298 59.48,16.558 19.843,5.234 39.882,9.883 60.207,12.818 16.22,2.351 34.259,4.558 49.441,-3.221 4.298,-2.195 8.493,-5.506 10.766,-9.831 -0.013,1.442 -0.052,2.883 -0.169,4.325 -0.013,0.143 0,0.272 0.026,0.389 -0.883,1.598 -1.948,3.065 -3.325,4.312 -1.831,1.662 -4.051,2.286 -6,3.662 -0.558,0.403 -0.389,1.364 0.377,1.364 C 18.156,14.922 20.766,13 22.467,11.428 24,10 25.221,8.325 26.104,6.467 c 0.013,-0.013 0.013,0 0.026,-0.013 0.363,2.897 0.74,5.793 1.129,8.689 -1.207,1.831 -2.649,3.441 -4.571,4.701 -2.688,1.766 -5.441,2.117 -8.545,2.597 -0.754,0.117 -0.754,1.416 0,1.533 4.961,0.818 10.48,-2.195 13.441,-6.481 0.338,2.52 0.688,5.052 1.039,7.572 -1.078,1.272 -2.273,2.402 -3.714,3.298 -1.896,1.169 -3.909,1.507 -5.922,2.325 -0.753,0.312 -0.675,1.403 0.195,1.455 3.506,0.207 7.272,-2.234 9.701,-5.143 0.389,2.727 0.766,5.441 1.143,8.168 -3.844,6.403 -9.74,10 -17.247,12.104 -1.026,0.286 -0.844,1.974 0.247,1.883 7.117,-0.571 13.571,-5.337 17.363,-11.428 0.429,3.052 0.844,6.104 1.26,9.156 -0.948,1.259 -2.078,2.285 -3.558,3.052 -1.87,0.961 -3.728,0.766 -5.663,1.285 -0.792,0.208 -0.649,1.195 0,1.468 2.078,0.857 5,-0.273 6.805,-1.377 1.026,-0.623 1.936,-1.415 2.702,-2.324 0.246,1.87 0.493,3.753 0.74,5.623 -1.493,2.363 -3.416,4.311 -5.935,5.584 -2.766,1.39 -5.338,1.273 -8.286,1.663 -0.818,0.103 -1.065,1.207 -0.194,1.493 5.298,1.701 11.519,-2.104 14.701,-6.532 0.233,1.805 0.441,3.597 0.662,5.402 -0.195,-0.013 -0.416,0.039 -0.61,0.195 -3.883,3.065 -7.87,4.506 -12.676,5.467 -1.013,0.195 -0.779,1.871 0.247,1.793 4.831,-0.325 9.611,-2.637 13.247,-5.806 0.234,1.884 0.454,3.767 0.662,5.65 -1.779,2.402 -3.935,4.402 -6.61,5.805 -2.714,1.402 -5.338,1.558 -8.208,2.286 -0.688,0.168 -0.766,1.35 0,1.467 5.662,0.87 11.662,-3.091 15.039,-7.662 0.208,1.87 0.416,3.74 0.597,5.623 0.104,1.026 0.195,2.052 0.299,3.078 -1.688,1.805 -3.571,3.39 -5.701,4.649 -2.611,1.546 -5.351,2.169 -8.143,3.208 -0.753,0.273 -0.688,1.52 0.195,1.468 5.247,-0.26 10.259,-3.65 13.818,-7.572 0.299,3.052 0.571,6.104 0.844,9.169 -3.974,3.299 -8.195,4.468 -13.312,5.026 -1,0.117 -1.026,1.493 0,1.584 4.832,0.377 9.767,-1.779 13.468,-4.883 0.273,3.195 0.532,6.403 0.779,9.598 -0.714,0.61 -1.48,1.181 -2.312,1.662 -1.48,0.857 -3.142,1.195 -4.662,1.935 -0.584,0.286 -0.299,1.221 0.325,1.208 2.389,-0.078 4.805,-1.481 6.779,-3.208 0.13,1.636 0.234,3.286 0.364,4.935 -3.922,3 -7.961,3.779 -12.87,4.442 -0.715,0.103 -0.702,1.324 0,1.428 4.584,0.649 9.363,-1.325 12.986,-4.195 0.156,2.104 0.312,4.208 0.468,6.325 -1.416,1.364 -2.974,2.532 -4.766,3.415 -2.624,1.299 -5.208,1.416 -7.974,2.117 -0.572,0.143 -0.624,1.117 0,1.221 4.558,0.714 9.428,-1.857 12.844,-5.156 0.195,2.637 0.428,5.403 0.545,8.208 -6.065,4.818 -12.883,6.675 -20.792,7.234 -0.935,0.065 -0.909,1.337 0,1.428 7.546,0.702 15.052,-2.35 20.831,-7.13 0.052,2.377 0,4.78 -0.272,7.104 -2.299,2.013 -4.702,3.844 -7.39,5.325 -2.597,1.415 -5.467,2.143 -8.052,3.519 -0.558,0.299 -0.325,1.26 0.325,1.221 5.324,-0.389 10.844,-4.117 14.805,-7.948 -0.805,4.546 -2.559,8.753 -6.078,12.078 m -99.531,9.844 c 33.571,6.026 69.492,7.805 100.96,-7.467 0.649,-0.325 0.805,-0.897 0.649,-1.416 6.883,-6.234 7.506,-15.792 7.169,-24.636 0.143,-0.143 0.285,-0.273 0.415,-0.416 0.39,-0.415 -0.039,-0.961 -0.467,-0.883 v -0.026 c -0.377,-7.805 -0.922,-15.597 -1.559,-23.389 0.13,-0.195 0.078,-0.403 -0.052,-0.546 C 39.753,94.467 39.194,88.337 38.597,82.22 36.987,65.701 35.298,49.012 32.87,32.454 32.883,32.389 32.909,32.324 32.935,32.259 33.013,32 32.922,31.779 32.74,31.636 31.805,25.311 30.766,19 29.571,12.727 c 0,-0.065 -0.013,-0.117 -0.026,-0.169 -0.636,-3.324 -1.325,-6.636 -2.039,-9.935 0.065,-2.74 -0.221,-5.428 -0.935,-8.064 0.208,-5.611 -3,-10.961 -7.454,-14.234 -9.598,-7.078 -29.792,-6.325 -36.078,5.247 -2,3.675 -1.506,7.233 0.364,10.181 0.493,2.156 0.948,4.325 1.363,6.494 0.689,3.636 0.793,7.467 1.806,11 -4.611,-0.091 -9.234,-0.533 -13.767,-1.065 -41.337,-4.909 -81.271,-17.662 -121.245,-28.753 -17.909,-4.974 -37.779,-12.364 -56.636,-9.208 -13.428,2.247 -26.818,12.377 -28.389,26.701 -0.364,3.39 0.065,6.571 1.13,9.467 -0.468,19.987 1.298,40.299 1.961,60.221 0.74,22.259 1.48,44.532 2.221,66.804 0.025,0.805 0.623,1.234 1.246,1.299 3.585,9.857 14.805,16.337 24.948,16.415 9.844,0.065 24.182,-6.091 23.649,-17.727 0,-0.091 -0.026,-0.156 -0.052,-0.234 0.039,-0.129 0.065,-0.272 0.052,-0.428 -0.091,-3.247 -0.208,-6.494 -0.312,-9.727 18.767,4.532 36.623,12.974 55.078,18.61 18.597,5.688 37.532,10.324 56.675,13.753"
         style="fill:#432918;fill-opacity:1;fill-rule:nonzero;stroke:none"
         id="path4771"
         inkscape:connector-curvature="0" />
    </g>
    <g
       id="g4773"
       transform="matrix(0,-0.35277777,0.35277777,0,-30.477036,132.84567)">
      <path
         d="m 0,0 c 34.766,6.805 72.441,9.87 105.311,-5.935 3.519,-3.325 5.272,-7.532 6.077,-12.078 -3.961,3.831 -9.48,7.559 -14.805,7.948 -0.649,0.039 -0.883,-0.922 -0.324,-1.221 2.584,-1.376 5.454,-2.103 8.052,-3.519 2.688,-1.481 5.09,-3.312 7.389,-5.325 0.273,-2.324 0.325,-4.727 0.273,-7.103 -5.779,4.779 -13.286,7.831 -20.831,7.129 -0.909,-0.091 -0.935,-1.363 0,-1.428 7.909,-0.559 14.727,-2.416 20.792,-7.234 -0.117,-2.805 -0.351,-5.571 -0.546,-8.208 -3.415,3.299 -8.285,5.87 -12.844,5.156 -0.623,-0.104 -0.571,-1.078 0,-1.221 2.767,-0.701 5.351,-0.818 7.974,-2.116 1.793,-0.884 3.351,-2.052 4.767,-3.416 -0.156,-2.117 -0.312,-4.221 -0.468,-6.325 -3.623,2.87 -8.402,4.844 -12.987,4.195 -0.701,-0.104 -0.714,-1.325 0,-1.428 4.909,-0.663 8.948,-1.442 12.87,-4.442 -0.13,-1.649 -0.234,-3.299 -0.363,-4.935 -1.974,1.727 -4.39,3.13 -6.78,3.208 -0.623,0.013 -0.909,-0.922 -0.324,-1.208 1.519,-0.74 3.181,-1.078 4.662,-1.935 0.831,-0.481 1.597,-1.052 2.312,-1.662 -0.247,-3.195 -0.507,-6.403 -0.78,-9.598 -3.701,3.104 -8.636,5.26 -13.467,4.883 -1.026,-0.09 -1,-1.467 0,-1.584 5.117,-0.558 9.338,-1.727 13.312,-5.026 -0.273,-3.065 -0.546,-6.117 -0.845,-9.169 -3.558,3.922 -8.571,7.312 -13.818,7.572 -0.883,0.052 -0.948,-1.195 -0.194,-1.468 2.792,-1.039 5.532,-1.662 8.142,-3.208 2.13,-1.259 4.013,-2.844 5.702,-4.649 -0.104,-1.026 -0.195,-2.052 -0.299,-3.078 -0.182,-1.883 -0.39,-3.753 -0.597,-5.623 -3.377,4.571 -9.377,8.532 -15.039,7.662 -0.767,-0.117 -0.689,-1.299 0,-1.467 2.87,-0.728 5.493,-0.883 8.207,-2.286 2.676,-1.403 4.832,-3.403 6.611,-5.805 -0.208,-1.883 -0.429,-3.766 -0.663,-5.649 -3.636,3.168 -8.415,5.48 -13.246,5.805 -1.026,0.078 -1.26,-1.598 -0.247,-1.792 4.805,-0.962 8.792,-2.403 12.675,-5.468 0.195,-0.156 0.416,-0.208 0.611,-0.195 -0.221,-1.805 -0.429,-3.597 -0.663,-5.402 -3.181,4.428 -9.402,8.233 -14.701,6.532 -0.87,-0.286 -0.623,-1.389 0.195,-1.493 2.948,-0.39 5.519,-0.273 8.286,-1.663 2.519,-1.272 4.441,-3.22 5.935,-5.584 -0.247,-1.87 -0.494,-3.753 -0.741,-5.623 -0.766,0.909 -1.675,1.701 -2.701,2.324 -1.805,1.104 -4.727,2.234 -6.805,1.377 -0.649,-0.273 -0.792,-1.26 0,-1.468 1.935,-0.519 3.792,-0.324 5.662,-1.285 1.481,-0.767 2.611,-1.793 3.559,-3.052 -0.416,-3.052 -0.832,-6.104 -1.26,-9.156 -3.792,6.091 -10.247,10.857 -17.364,11.428 -1.09,0.091 -1.272,-1.597 -0.246,-1.883 7.506,-2.104 13.402,-5.701 17.246,-12.103 -0.376,-2.728 -0.753,-5.442 -1.143,-8.169 -2.428,2.909 -6.194,5.35 -9.701,5.143 -0.87,-0.052 -0.948,-1.143 -0.195,-1.455 2.013,-0.818 4.026,-1.156 5.922,-2.325 1.442,-0.896 2.637,-2.026 3.715,-3.298 -0.351,-2.52 -0.702,-5.052 -1.039,-7.572 -2.961,4.286 -8.481,7.299 -13.442,6.481 -0.753,-0.117 -0.753,-1.416 0,-1.533 3.104,-0.48 5.857,-0.831 8.546,-2.597 1.922,-1.26 3.363,-2.87 4.571,-4.701 -0.39,-2.896 -0.766,-5.792 -1.13,-8.688 -0.013,0.013 -0.013,0 -0.026,0.013 -0.883,1.857 -2.104,3.532 -3.636,4.961 -1.701,1.571 -4.312,3.493 -6.714,3.506 -0.767,0 -0.935,-0.961 -0.377,-1.364 1.948,-1.376 4.169,-2 6,-3.662 1.377,-1.247 2.442,-2.714 3.325,-4.312 -0.026,-0.116 -0.039,-0.246 -0.026,-0.389 0.117,-1.442 0.156,-2.883 0.168,-4.325 -2.272,4.325 -6.467,7.636 -10.766,9.831 -15.181,7.779 -33.22,5.572 -49.441,3.221 -20.324,-2.935 -40.363,-7.584 -60.207,-12.818 -19.896,-5.26 -39.623,-11.13 -59.48,-16.558 -18.571,-5.091 -42.597,-14.065 -60.869,-3.702 -7.922,4.481 -14.779,12.922 -14.857,22.286 0.208,0.143 0.35,0.351 0.389,0.662 0.221,1.818 0.403,3.65 0.572,5.481 2.753,8.155 10.974,13.454 19.415,14.688 0.078,0.013 0.169,0.013 0.26,0.026 -0.026,-0.078 -0.065,-0.143 -0.078,-0.221 -0.143,-1.286 -0.26,-2.571 -0.377,-3.857 -0.052,-0.143 -0.065,-0.299 -0.026,-0.455 -0.298,-3.688 -0.48,-7.363 -0.558,-11.051 -1.416,-3.208 -0.662,-7.325 1.558,-10.013 8.338,-10.143 26.156,-3.961 26.39,9.039 0.026,1.155 -0.065,2.259 -0.247,3.311 1.286,15.546 1.701,31.208 2.195,46.818 0.376,0.039 0.675,0.506 0.324,0.857 -0.103,0.091 -0.194,0.182 -0.298,0.273 0.143,4.208 0.272,8.415 0.441,12.623 0.702,18.013 1.533,36.026 2.143,54.038 17.571,2.481 34.195,10.728 51.039,16.065 C -36.948,-8.325 -18.571,-3.636 0,0"
         style="fill:#deaa3d;fill-opacity:0.48553056;fill-rule:nonzero;stroke:none"
         id="path4775"
         inkscape:connector-curvature="0" />
    </g>
    <g
       id="g4777"
       transform="matrix(0,-0.35277777,0.35277777,0,-80.644256,111.33565)">
      <path
         d="m 0,0 c 5.519,0.013 11.026,-0.507 16.351,-1.974 1.181,-0.325 2.415,-0.753 3.662,-1.247 -0.234,-0.156 -0.429,-0.402 -0.468,-0.701 -0.454,-3.649 -0.805,-7.117 -1.467,-10.545 -0.844,1.207 -1.961,2.233 -3.195,2.935 -5.013,2.805 -12.169,1.194 -16.818,-2.637 0.312,1.013 0.584,2.039 0.844,3.065 0.13,-0.013 0.26,0.026 0.364,0.143 1.065,1.117 2.363,2.052 3.87,2.52 1.48,0.454 2.792,0.142 4.286,0.233 0.688,0.039 1.09,1.039 0.376,1.403 -2.74,1.415 -6.415,-0.208 -8.467,-2.429 0.324,1.546 0.571,3.091 0.701,4.611 1.104,0.792 2.312,1.402 3.675,1.61 1.338,0.208 2.624,-0.273 3.922,-0.026 0.572,0.117 0.52,0.831 0.143,1.117 C 6.558,-0.987 4.493,-1.377 3.104,-1.74 2.026,-2.026 1.013,-2.493 0.117,-3.13 0.143,-2.065 0.117,-1.013 0,0"
         style="fill:#803300;fill-opacity:1;fill-rule:nonzero;stroke:none"
         id="path4779"
         inkscape:connector-curvature="0" />
    </g>
    <g
       id="g4781"
       transform="matrix(0,-0.35277777,0.35277777,0,-86.783476,104.45881)">
      <path
         d="m 0,0 c 1.701,4.364 2.584,9.13 1.818,13.636 9.831,-4.376 19.675,-13.74 10.675,-24.246 -7.285,-8.507 -23.246,-8.611 -31.714,-1.753 -5.714,4.636 -4.558,11.441 1.832,14.882 1.909,1.039 4.35,1.832 6.688,1.923 -0.234,-1.884 -0.403,-3.78 -0.572,-5.663 -0.091,-0.987 -0.545,-2.831 -0.454,-4.078 -0.104,-0.415 -0.039,-0.883 0.312,-1.285 2.714,-3.221 8.077,-2.909 10.532,0.61 C 0.403,-4.13 0.558,-1.987 0,0"
         style="fill:#803300;fill-opacity:1;fill-rule:nonzero;stroke:none"
         id="path4783"
         inkscape:connector-curvature="0" />
    </g>
    <g
       id="g4785"
       transform="matrix(0,-0.35277777,0.35277777,0,-85.271576,107.47802)">
      <path
         d="m 0,0 c 0.247,-0.039 0.493,-0.078 0.74,-0.143 1.442,-0.415 4.883,-2.558 5.052,-4.636 0.286,-3.494 -3.337,-8.013 -6.649,-4.091 -0.091,0.104 -0.182,0.182 -0.273,0.247 0.182,1.065 0.273,2.195 0.299,2.389 C -0.532,-4.156 -0.234,-2.078 0,0"
         style="fill:#f4ece1;fill-opacity:1;fill-rule:nonzero;stroke:none"
         id="path4787"
         inkscape:connector-curvature="0" />
    </g>
  </g>
  <g
     inkscape:groupmode="layer"
     id="layer2"
     inkscape:label="Ebene 2">
    <path
       style="fill:#deaa3d;stroke:#000000;stroke-width:0.26458332px;stroke-linecap:butt;stroke-linejoin:miter;stroke-opacity:1;fill-opacity:0.98070741"
       d="m -79.60896,172.64483 42.933295,-1.88282 c 0,0 4.017923,-0.46325 5.873175,7.56383 0.857324,3.70937 -6.377183,8.4301 -6.377183,8.4301 l -43.061794,1.56689 c 0,0 4.165201,-4.43014 4.252427,-7.68762 0.08723,-3.25749 -3.61992,-7.99038 -3.61992,-7.99038 z"
       id="path5647"
       inkscape:connector-curvature="0"
       sodipodi:nodetypes="ccsccsc" />
  </g>
</svg>
