<?xml version="1.0" encoding="UTF-8" standalone="no"?><!DOCTYPE svg PUBLIC "-//W3C//DTD SVG 1.1//EN" "http://www.w3.org/Graphics/SVG/1.1/DTD/svg11.dtd"><svg width="34px" height="34px" version="1.1" xmlns="http://www.w3.org/2000/svg" xmlns:xlink="http://www.w3.org/1999/xlink" xml:space="preserve" xmlns:serif="http://www.serif.com/" style="fill-rule:evenodd;clip-rule:evenodd;stroke-linejoin:round;stroke-miterlimit:1.41421;"><rect id="pnpnews" x="0" y="0" width="33.982" height="33.982" style="fill:none;"/><clipPath id="_clip1"><rect x="0" y="0" width="33.982" height="33.982"/></clipPath><g clip-path="url(#_clip1)"><rect id="ArtBoard1" x="0" y="0" width="48" height="48" style="fill:none;"/><g><path d="M25.168,1.237c4.133,0 7.532,3.4 7.532,7.532l0,16.337c0,4.132 -3.399,7.532 -7.532,7.532l-16.337,0c-4.132,0 -7.531,-3.4 -7.531,-7.532l0,-16.337c0,-4.132 3.399,-7.532 7.531,-7.532l16.337,0m0,-1.299l-16.337,0c-4.877,0 -8.831,3.953 -8.831,8.831l0,16.337c0,4.878 3.954,8.832 8.831,8.832l16.337,0c4.878,0 8.832,-3.954 8.832,-8.832l0,-16.337c0,-4.878 -3.954,-8.831 -8.832,-8.831Z" style="fill:#7a561c;fill-rule:nonzero;"/><path id="Shape_10" d="M32.322,14.553c-0.917,-2.222 -3.223,-3.003 -3.223,-3.003c0,0 0.702,1.3 0.485,2.915c0.052,1.241 -0.197,2.04 -0.352,2.826c0.434,-0.453 0.617,-1.015 0.838,-1.678c0.012,0.318 0.076,0.68 0,1.148c-0.09,0.562 -0.142,0.985 -0.618,1.943c0.322,-0.236 0.588,-0.354 0.751,-0.486c-0.181,2.138 -1.734,6.541 -5.1,9.405c-4.049,3.445 -8.293,4.24 -14.241,2.341c-5.418,-1.729 -5.997,-3.363 -7.021,-4.195c0.84,1.21 3.227,4.243 6.58,5.608c5.351,2.178 11.564,2.06 16.823,-2.473c5.463,-4.708 6.114,-11.839 5.078,-14.351Zm-13.379,-8.168c3.488,2.489 5.045,1.765 6.093,2.605c-0.191,0.389 -0.378,0.774 -0.441,0.927c-0.136,0.362 -0.325,1.402 0.397,1.811c-0.019,-0.011 0.751,0.441 0.751,0.441c0,0 0.287,-1.018 0.795,-1.904c0.293,0.262 0.474,0.432 0.474,0.432l1.204,-1.266c0,0 -0.191,-0.203 -0.459,-0.485c0.894,-0.594 2.004,-0.972 2.004,-0.972c0,0 -0.492,-0.712 -0.486,-0.706c-0.883,-0.71 -1.333,-0.553 -1.793,-0.366c-0.353,0.136 -0.795,0.373 -1.166,0.588c-1.016,-0.993 -1.531,-2.933 -4.725,-4.681c-3.917,-2.148 -6.534,-1.414 -6.534,-1.414c0,0 0.221,2.372 3.886,4.99Zm-1.325,-3.41c0.151,-0.27 0.546,-0.337 0.883,-0.149c0.338,0.187 0.489,0.558 0.34,0.829c-0.15,0.269 -0.545,0.337 -0.883,0.149c-0.338,-0.188 -0.489,-0.558 -0.34,-0.829Z" style="fill:#7a561c;fill-rule:nonzero;"/><path id="Shape_11_copy_2" d="M13.81,22.351l-1.511,-1.174c0,0 -2.44,0.931 -3.239,2.047c-0.799,1.116 -0.105,3.369 -1.307,3.609c-1.201,0.24 -2.914,-0.312 -2.914,-0.312c0,0 1.737,1.634 3.201,1.148c1.464,-0.486 1.614,-2.507 1.943,-3.706c0.217,-0.789 3.827,-1.612 3.827,-1.612Zm5.996,8.504c-0.81,-0.424 -1.555,-1.173 -1.571,-2.044c-0.024,-1.335 0.687,-1.727 0.822,-3.289c0.108,-1.26 0.509,-2.805 0.509,-2.805l-3.268,1.452c0,0 1.112,0.059 1.162,1.262c0.056,1.325 -0.451,2.365 -0.378,3.62c0.078,1.328 0.726,2.158 1.983,2.729c1.756,0.799 4.588,-0.801 4.588,-0.801c0,0 -2.755,0.45 -3.847,-0.124Zm-3.621,-6.827l-2.203,-1.513c0,0 -0.25,0.693 -0.476,1.819c-0.264,1.326 1.392,2.239 1.219,3.71c-0.169,1.434 -1.095,1.743 -1.923,1.952c-0.77,0.196 -1.959,-0.188 -2.116,-0.802c-0.158,-0.613 -0.184,-1.081 0.254,-1.35c0.22,-0.136 0.437,-0.027 0.526,0.194c0.085,0.211 0.052,1.384 0.052,1.384c0,0 0.965,-0.925 0.427,-1.982c-0.407,-0.799 -1.469,-0.405 -1.794,-0.254c-0.435,0.204 -1.13,1.212 -0.542,2.627c0.587,1.415 2.423,2.214 4.341,1.306c1.709,-0.808 2.252,-2.064 2.402,-2.705c0.273,-1.17 -0.633,-2.304 -1.064,-3.223c-0.344,-0.73 0.895,-1.163 0.895,-1.163l0.002,0Zm14.062,-0.589c0,0 -1.362,-0.743 -2.958,0.535c-1.291,1.032 0.119,2.672 -1.27,3.689c-1.237,0.905 -3.737,-0.211 -4.396,-2.057c-0.637,-1.789 1.248,-5.021 1.248,-5.021l-2.926,2.005c0,0 -0.335,1.431 -0.448,2.543c-0.114,1.113 1.613,2.878 3.064,3.68c1.159,0.641 2.886,1.236 4.584,-0.068c2.096,-1.607 0.06,-2.888 1.101,-3.95c1.051,-1.071 2.001,-1.356 2.001,-1.356Z" style="fill:#7a561c;fill-rule:nonzero;stroke:#efeded;stroke-width:0.12px;"/><g id="Group_5_copy"><path id="Shape_7" d="M23.517,13.037l-6.593,-3.736l-6.814,3.736l0,7.693l6.703,3.846l6.813,-3.956l-0.109,-7.583Z" style="fill:#7a561c;fill-rule:nonzero;"/><path id="Shape_8" d="M15.714,10.62l-4.395,2.528l1.978,1.208l2.417,-3.736Zm4.176,3.956l-2.857,-4.286l-2.967,4.286l5.824,0Zm2.748,-1.319l-4.396,-2.637l2.307,3.626l2.089,-0.989Zm-1.649,1.759l1.868,3.626l0,-4.725l-1.868,1.099Zm-10.22,-1.319l0.001,5.493l2.197,-4.176l-2.197,-1.317Zm2.637,1.978l-2.308,4.504l5.166,0.33l-2.858,-4.834Zm4.396,4.615l4.944,-0.22l-2.198,-4.505l-2.746,4.725Zm-3.847,-4.945l2.967,4.945l2.967,-4.945l-5.934,0Zm3.297,8.241l4.724,-2.747l-4.615,0.33l-0.109,2.417Zm-0.66,0l0,-2.417l-4.615,-0.22l4.615,2.637Z" style="fill:#fffefe;fill-rule:nonzero;"/></g><path d="M13.169,17.302c0,0 1.514,-1.193 3.687,-1.269c1.458,-0.051 3.963,1.236 3.963,1.236c0,0 -0.957,1.599 -3.874,1.678c-2.217,0.06 -3.776,-1.645 -3.776,-1.645Z" style="fill:#7a561c;"/><path id="Ellipse_2" d="M18.361,16.433c0.005,0.05 0.008,0.101 0.008,0.152c0,0.774 -0.638,1.413 -1.413,1.413c-0.776,0 -1.413,-0.639 -1.413,-1.413c0,-0.059 0.003,-0.119 0.011,-0.177c-0.168,0.045 -0.334,0.098 -0.497,0.16c0,0.008 0,0.017 0,0.026c0,1.053 0.867,1.921 1.921,1.921c1.044,0 1.907,-0.852 1.921,-1.896c-0.176,-0.072 -0.356,-0.134 -0.538,-0.186Z" style="fill:#f4eded;fill-rule:nonzero;"/><path id="Shape_9" d="M30.291,11.904c-0.508,-0.78 -0.868,-1.108 -1.28,-1.413c-0.631,-0.466 -1.569,-0.634 -1.569,-0.634c0,0 0.165,0.902 0.641,1.473c0.277,0.331 0.732,0.955 1.204,1.369c-0.144,-0.628 -0.497,-1.546 -0.497,-1.546c0,0 0.735,0.42 1.501,0.751Z" style="fill:#7a561c;fill-rule:nonzero;"/><path id="Shape_13_copy" d="M17.927,8.283c-0.379,-0.129 -0.72,-0.238 -1.28,-0.133c-0.432,0.082 -1.55,0.42 -2.517,0.707c-0.967,0.286 -1.462,0.155 -2.694,-0.132c-1.231,-0.288 -1.766,-0.575 -1.766,-0.575c0,0 0.869,-0.388 1.966,0.241c-0.166,-0.299 -0.366,-0.577 -0.685,-0.77c0.54,-0.236 1.222,0.132 1.943,0.444c-0.155,-0.36 -0.317,-0.676 -0.707,-0.842c0.293,-0.073 1.038,-0.239 1.69,0.279c-0.022,-0.43 -0.174,-0.655 -0.586,-0.764c0.596,-0.089 0.87,-0.126 1.583,0.451c0.01,-0.331 -0.221,-0.639 -0.144,-0.662c0.684,0.188 0.442,0.278 0.761,0.653c-0.023,-0.407 -0.068,-0.79 -0.301,-1.104c-0.356,-0.479 -0.547,-0.843 -0.972,-0.883c-0.425,-0.04 -0.59,0.194 -0.971,0.309c-0.382,0.115 -1.855,0.221 -1.855,0.221c0,0 0.227,-0.468 -0.353,-0.574c-0.58,-0.106 -2.114,-0.203 -3.003,-0.044c-0.888,0.159 -2.34,0.794 -2.34,0.794c0,0 2.942,-0.489 2.871,-0.265c-0.073,0.226 -1.562,0.615 -2.385,0.972c-0.823,0.358 -2.164,1.325 -2.164,1.325c0,0 1.22,-0.49 1.766,-0.619c0.546,-0.127 1.369,-0.308 1.369,-0.308c0,0 -0.701,0.591 -1.104,1.148c-0.238,0.326 -0.459,0.666 -0.662,1.015c-0.203,0.35 -1.165,0.239 -1.943,0.883c-0.452,0.371 -0.866,0.784 -1.236,1.237c0.512,-0.413 1.096,-0.728 1.722,-0.927c1.032,-0.328 0.883,-0.133 0.883,-0.133c0,0 -0.303,0.746 -0.397,1.236c-0.059,0.335 -0.089,0.675 -0.089,1.016c0,0.34 -0.833,0.613 -1.103,1.413c-0.163,0.468 -0.237,0.962 -0.221,1.457c0.015,0.495 0.182,-0.843 0.75,-1.457c0.569,-0.614 0.663,-0.53 0.663,-0.53c0,0 0.127,1.127 0.397,1.899c0.27,0.772 0.883,1.324 0.883,1.324c0,0 -0.667,-0.132 -1.28,0.442c-0.614,0.574 -0.646,1.082 -0.84,1.59c-0.193,0.507 -0.176,0.75 -0.176,0.75c0,0 -0.27,-0.728 -0.927,-0.927c-0.16,-0.049 -0.118,-0.442 -0.133,-0.574c-0.022,-0.203 -0.088,-1.001 -0.132,-1.148c-0.055,-0.177 -0.244,-0.493 -0.707,-0.928c0.114,0.317 0.247,0.627 0.398,0.928c0.15,0.301 -0.138,0.836 -0.163,0.609c-0.024,-0.214 0.084,-0.462 0.031,-0.609c-0.106,-0.288 -0.486,-1.104 -0.486,-1.104c0,0 0.171,0.685 0.132,1.148c-0.031,0.303 -0.105,0.601 -0.221,0.883c-0.115,0.283 -0.049,0.574 0.177,0.927c0.225,0.354 0.745,1.127 0.663,1.678c-0.062,0.374 -0.151,0.743 -0.265,1.104c-0.116,0.361 0.723,-0.618 0.794,-0.927c0.071,-0.309 0.088,-0.839 0.088,-0.839l0.133,0.751c0,0 0.569,0.353 0.794,0.221c0.226,-0.133 1.365,-1.061 1.723,-1.591c0.358,-0.529 0.944,-0.927 1.633,-0.794c0.69,0.132 3.219,1.855 3.533,2.075c0.314,0.221 0.795,0.398 0.795,0.398l0.176,-7.198c0,0 -2.742,-0.265 -3.223,-1.589c-0.481,-1.325 0.354,-2.385 0.354,-2.385c0,0 0.436,-0.065 1.015,0.442c0.579,0.507 0.707,0.853 1.987,0.972c1.307,0.12 1.828,-0.056 2.384,-0.663c-0.257,0.102 -0.507,0.221 -0.75,0.353c0.142,-0.174 0.22,-0.392 0.221,-0.618c-0.271,0.28 -0.452,0.473 -1.06,0.53c0.198,-0.2 0.303,-0.185 0.441,-0.618c-0.302,0.2 -0.843,0.644 -1.501,0.176c0.421,-0.205 0.687,-0.123 0.75,-0.53c-0.496,0.034 -0.964,0.483 -1.898,-0.176c-0.627,-0.587 -0.707,-0.662 -0.707,-0.662c0,0 0.68,0.088 1.811,0.397c1.131,0.309 2.159,0.332 2.826,0.176c0.667,-0.155 0.988,-0.529 1.943,-0.618c0.619,-0.059 1.243,-0.029 1.854,0.089c-0.348,-0.286 -0.641,-0.277 -1.324,-0.309c0.3,-0.165 1.103,-0.162 1.368,-0.134Zm-8.61,-2.031c-0.117,-0.018 -0.236,-0.018 -0.353,0c-0.118,0.018 0.381,-0.421 0.795,-0.441c0.413,-0.021 0.75,0.265 0.75,0.265c-0.091,0.021 -0.179,0.05 -0.265,0.088c-0.088,0.044 -0.185,0.211 -0.441,0.177c-0.257,-0.036 -0.259,-0.061 -0.486,-0.089Z" style="fill:#7a561c;fill-rule:nonzero;"/></g></g></svg>