<?xml version="1.0" encoding="UTF-8" standalone="no"?><!DOCTYPE svg PUBLIC "-//W3C//DTD SVG 1.1//EN" "http://www.w3.org/Graphics/SVG/1.1/DTD/svg11.dtd"><svg width="48px" height="48px" version="1.1" xmlns="http://www.w3.org/2000/svg" xmlns:xlink="http://www.w3.org/1999/xlink" xml:space="preserve" xmlns:serif="http://www.serif.com/" style="fill-rule:evenodd;clip-rule:evenodd;stroke-linejoin:round;stroke-miterlimit:1.41421;"><rect id="ArtBoard1" x="0" y="0" width="48" height="48" style="fill:none;"/><clipPath id="_clip1"><rect x="0" y="0" width="48" height="48"/></clipPath><g clip-path="url(#_clip1)"><path d="M35.532,1.772c5.834,0 10.633,4.8 10.633,10.633l0,23.065c0,5.833 -4.799,10.633 -10.633,10.633l-23.064,0c-5.834,0 -10.633,-4.8 -10.633,-10.633l0,-23.065c0,-5.833 4.799,-10.633 10.633,-10.633l23.064,0m0,-1.834l-23.064,0c-6.886,0 -12.468,5.581 -12.468,12.467l0,23.065c0,6.886 5.582,12.468 12.468,12.468l23.064,0c6.886,0 12.468,-5.582 12.468,-12.468l0,-23.065c0,-6.886 -5.582,-12.467 -12.468,-12.467Z" style="fill:#7a561c;fill-rule:nonzero;"/><path id="Shape_10" d="M45.631,20.571c-1.295,-3.137 -4.55,-4.239 -4.55,-4.239c0,0 0.991,1.835 0.685,4.115c0.073,1.751 -0.278,2.879 -0.498,3.989c0.614,-0.639 0.872,-1.433 1.184,-2.368c0.017,0.449 0.107,0.959 0,1.62c-0.128,0.794 -0.201,1.39 -0.873,2.743c0.455,-0.333 0.831,-0.499 1.06,-0.686c-0.255,3.018 -2.448,9.234 -7.2,13.278c-5.716,4.863 -11.707,5.985 -20.104,3.304c-7.65,-2.44 -8.467,-4.747 -9.912,-5.922c1.185,1.708 4.555,5.991 9.289,7.917c7.555,3.075 16.326,2.908 23.75,-3.491c7.712,-6.646 8.632,-16.714 7.169,-20.26Zm-18.888,-11.532c4.925,3.515 7.123,2.493 8.602,3.678c-0.269,0.549 -0.533,1.093 -0.623,1.309c-0.192,0.511 -0.458,1.979 0.561,2.556c-0.027,-0.015 1.06,0.623 1.06,0.623c0,0 0.405,-1.437 1.122,-2.688c0.414,0.37 0.67,0.61 0.67,0.61l1.699,-1.787c0,0 -0.269,-0.286 -0.647,-0.685c1.261,-0.839 2.829,-1.372 2.829,-1.372c0,0 -0.695,-1.005 -0.686,-0.997c-1.247,-1.002 -1.882,-0.78 -2.532,-0.517c-0.498,0.193 -1.122,0.527 -1.646,0.83c-1.434,-1.401 -2.161,-4.14 -6.67,-6.608c-5.53,-3.032 -9.225,-1.996 -9.225,-1.996c0,0 0.312,3.348 5.486,7.044Zm-1.87,-4.813c0.212,-0.381 0.77,-0.476 1.246,-0.211c0.477,0.264 0.691,0.788 0.48,1.17c-0.211,0.381 -0.77,0.476 -1.247,0.211c-0.477,-0.265 -0.69,-0.788 -0.479,-1.17Z" style="fill:#7a561c;fill-rule:nonzero;"/><path id="Shape_11_copy_2" d="M19.497,31.58l-2.134,-1.658c0,0 -3.444,1.315 -4.573,2.891c-1.128,1.575 -0.148,4.756 -1.844,5.095c-1.696,0.338 -4.114,-0.441 -4.114,-0.441c0,0 2.452,2.307 4.518,1.621c2.067,-0.686 2.279,-3.539 2.743,-5.233c0.307,-1.113 5.404,-2.275 5.404,-2.275Zm8.464,12.006c-1.143,-0.599 -2.195,-1.656 -2.217,-2.886c-0.035,-1.885 0.969,-2.438 1.16,-4.643c0.153,-1.779 0.718,-3.961 0.718,-3.961l-4.613,2.051c0,0 1.57,0.083 1.641,1.781c0.079,1.87 -0.638,3.339 -0.534,5.111c0.11,1.874 1.025,3.046 2.799,3.853c2.48,1.128 6.478,-1.131 6.478,-1.131c0,0 -3.89,0.635 -5.432,-0.175Zm-5.112,-9.639l-3.109,-2.136c0,0 -0.353,0.979 -0.672,2.569c-0.374,1.871 1.965,3.16 1.72,5.237c-0.238,2.025 -1.546,2.461 -2.714,2.756c-1.088,0.277 -2.766,-0.265 -2.988,-1.132c-0.223,-0.866 -0.26,-1.527 0.358,-1.907c0.311,-0.192 0.617,-0.037 0.743,0.275c0.12,0.297 0.074,1.953 0.074,1.953c0,0 1.362,-1.305 0.603,-2.797c-0.575,-1.129 -2.074,-0.573 -2.533,-0.359c-0.615,0.288 -1.595,1.711 -0.766,3.709c0.829,1.997 3.421,3.125 6.129,1.843c2.413,-1.141 3.18,-2.913 3.391,-3.818c0.386,-1.652 -0.893,-3.253 -1.502,-4.551c-0.486,-1.031 1.264,-1.642 1.264,-1.642l0.002,0Zm19.852,-0.831c0,0 -1.922,-1.049 -4.176,0.755c-1.822,1.457 0.169,3.773 -1.793,5.208c-1.746,1.278 -5.275,-0.298 -6.205,-2.904c-0.9,-2.525 1.761,-7.088 1.761,-7.088l-4.13,2.83c0,0 -0.473,2.02 -0.633,3.591c-0.161,1.57 2.278,4.063 4.326,5.195c1.636,0.904 4.074,1.745 6.472,-0.096c2.959,-2.269 0.084,-4.077 1.554,-5.577c1.483,-1.512 2.824,-1.914 2.824,-1.914Z" style="fill:#7a561c;fill-rule:nonzero;stroke:#efeded;stroke-width:0.17px;"/><g id="Group_5_copy"><path id="Shape_7" d="M33.2,18.431l-9.308,-5.274l-9.619,5.274l0,10.86l9.463,5.43l9.619,-5.585l-0.155,-10.705Z" style="fill:#7a561c;fill-rule:nonzero;"/><path id="Shape_8" d="M22.185,15.018l-6.205,3.569l2.792,1.706l3.413,-5.275Zm5.895,5.585l-4.033,-6.05l-4.189,6.05l8.222,0Zm3.879,-1.861l-6.206,-3.724l3.258,5.12l2.948,-1.396Zm-2.327,2.482l2.636,5.119l0,-6.67l-2.636,1.551Zm-14.428,-1.862l0,7.755l3.103,-5.895l-3.103,-1.86Zm3.724,2.793l-3.259,6.358l7.294,0.466l-4.035,-6.824Zm6.205,6.515l6.981,-0.311l-3.103,-6.359l-3.878,6.67Zm-5.43,-6.981l4.189,6.981l4.188,-6.981l-8.377,0Zm4.654,11.635l6.67,-3.879l-6.516,0.466l-0.154,3.413Zm-0.931,0l0,-3.413l-6.516,-0.311l6.516,3.724Z" style="fill:#fffefe;fill-rule:nonzero;"/></g><path d="M18.592,24.452c0,0 2.137,-1.685 5.205,-1.792c2.058,-0.072 5.595,1.745 5.595,1.745c0,0 -1.351,2.257 -5.47,2.369c-3.13,0.085 -5.33,-2.322 -5.33,-2.322Z" style="fill:#7a561c;"/><path id="Ellipse_2" d="M25.921,23.225c0.007,0.071 0.011,0.143 0.011,0.214c0,1.094 -0.9,1.995 -1.994,1.995c-1.095,0 -1.995,-0.901 -1.995,-1.995c0,-0.083 0.005,-0.167 0.016,-0.249c-0.238,0.063 -0.472,0.138 -0.702,0.225c0,0.012 0,0.025 0,0.037c0,1.487 1.224,2.712 2.712,2.712c1.474,0 2.692,-1.202 2.712,-2.676c-0.249,-0.102 -0.502,-0.19 -0.76,-0.263Z" style="fill:#f4eded;fill-rule:nonzero;"/><path id="Shape_9" d="M42.764,16.831c-0.717,-1.101 -1.225,-1.564 -1.808,-1.995c-0.89,-0.657 -2.214,-0.894 -2.214,-0.894c0,0 0.233,1.273 0.905,2.079c0.39,0.467 1.033,1.348 1.7,1.932c-0.204,-0.886 -0.703,-2.182 -0.703,-2.182c0,0 1.039,0.593 2.12,1.06Z" style="fill:#7a561c;fill-rule:nonzero;"/><path id="Shape_13_copy" d="M25.309,11.719c-0.535,-0.182 -1.017,-0.336 -1.808,-0.187c-0.609,0.115 -2.188,0.593 -3.553,0.998c-1.365,0.404 -2.064,0.219 -3.803,-0.187c-1.738,-0.406 -2.493,-0.811 -2.493,-0.811c0,0 1.226,-0.549 2.775,0.34c-0.234,-0.422 -0.517,-0.815 -0.967,-1.088c0.763,-0.332 1.726,0.187 2.743,0.628c-0.219,-0.509 -0.447,-0.955 -0.998,-1.189c0.414,-0.104 1.466,-0.337 2.386,0.394c-0.031,-0.607 -0.246,-0.925 -0.827,-1.079c0.841,-0.125 1.228,-0.178 2.234,0.637c0.015,-0.468 -0.311,-0.903 -0.203,-0.935c0.966,0.265 0.624,0.392 1.074,0.922c-0.032,-0.575 -0.095,-1.115 -0.425,-1.558c-0.502,-0.677 -0.771,-1.191 -1.371,-1.247c-0.601,-0.056 -0.834,0.274 -1.372,0.436c-0.538,0.163 -2.618,0.312 -2.618,0.312c0,0 0.32,-0.661 -0.499,-0.81c-0.818,-0.15 -2.984,-0.287 -4.239,-0.063c-1.254,0.225 -3.303,1.122 -3.303,1.122c0,0 4.153,-0.691 4.052,-0.374c-0.102,0.318 -2.205,0.867 -3.367,1.372c-1.161,0.505 -3.054,1.87 -3.054,1.87c0,0 1.722,-0.692 2.493,-0.873c0.771,-0.18 1.933,-0.436 1.933,-0.436c0,0 -0.99,0.835 -1.559,1.621c-0.336,0.461 -0.648,0.94 -0.935,1.433c-0.287,0.494 -1.644,0.337 -2.743,1.247c-0.638,0.523 -1.223,1.107 -1.745,1.746c0.723,-0.583 1.547,-1.027 2.431,-1.309c1.457,-0.462 1.247,-0.187 1.247,-0.187c0,0 -0.428,1.053 -0.561,1.745c-0.083,0.473 -0.125,0.953 -0.125,1.434c0,0.48 -1.176,0.866 -1.558,1.995c-0.229,0.661 -0.334,1.358 -0.312,2.057c0.022,0.699 0.257,-1.191 1.06,-2.057c0.802,-0.867 0.935,-0.748 0.935,-0.748c0,0 0.18,1.59 0.561,2.68c0.381,1.09 1.247,1.87 1.247,1.87c0,0 -0.942,-0.187 -1.808,0.624c-0.866,0.81 -0.911,1.527 -1.185,2.244c-0.273,0.716 -0.249,1.059 -0.249,1.059c0,0 -0.381,-1.027 -1.309,-1.309c-0.225,-0.068 -0.167,-0.623 -0.187,-0.81c-0.031,-0.287 -0.125,-1.413 -0.187,-1.621c-0.078,-0.249 -0.344,-0.695 -0.998,-1.309c0.161,0.447 0.349,0.884 0.562,1.309c0.212,0.425 -0.195,1.18 -0.23,0.86c-0.034,-0.302 0.119,-0.652 0.043,-0.86c-0.149,-0.406 -0.686,-1.558 -0.686,-1.558c0,0 0.242,0.967 0.187,1.621c-0.044,0.428 -0.149,0.848 -0.312,1.246c-0.163,0.399 -0.069,0.811 0.249,1.309c0.319,0.499 1.053,1.591 0.936,2.369c-0.087,0.528 -0.212,1.049 -0.374,1.559c-0.163,0.509 1.021,-0.873 1.122,-1.309c0.1,-0.437 0.124,-1.185 0.124,-1.185l0.187,1.06c0,0 0.804,0.499 1.122,0.312c0.319,-0.187 1.926,-1.497 2.432,-2.245c0.505,-0.748 1.333,-1.309 2.306,-1.122c0.973,0.187 4.544,2.619 4.987,2.93c0.443,0.312 1.122,0.561 1.122,0.561l0.249,-10.161c0,0 -3.871,-0.374 -4.55,-2.244c-0.679,-1.87 0.499,-3.366 0.499,-3.366c0,0 0.616,-0.093 1.433,0.623c0.818,0.716 0.998,1.205 2.805,1.372c1.846,0.17 2.581,-0.078 3.367,-0.935c-0.363,0.144 -0.717,0.311 -1.06,0.498c0.201,-0.246 0.311,-0.554 0.312,-0.872c-0.382,0.395 -0.638,0.668 -1.496,0.748c0.279,-0.283 0.428,-0.262 0.623,-0.873c-0.427,0.282 -1.191,0.909 -2.12,0.249c0.595,-0.29 0.97,-0.174 1.06,-0.748c-0.701,0.047 -1.362,0.681 -2.68,-0.249c-0.886,-0.829 -0.998,-0.935 -0.998,-0.935c0,0 0.96,0.124 2.556,0.561c1.597,0.436 3.048,0.468 3.99,0.249c0.942,-0.219 1.395,-0.748 2.743,-0.873c0.874,-0.083 1.755,-0.041 2.618,0.125c-0.492,-0.403 -0.905,-0.391 -1.87,-0.436c0.424,-0.233 1.558,-0.229 1.932,-0.189Zm-12.156,-2.867c-0.165,-0.026 -0.333,-0.026 -0.498,0c-0.166,0.025 0.538,-0.595 1.122,-0.623c0.583,-0.029 1.059,0.374 1.059,0.374c-0.128,0.03 -0.253,0.071 -0.374,0.124c-0.124,0.063 -0.261,0.299 -0.623,0.25c-0.362,-0.05 -0.365,-0.086 -0.686,-0.125Z" style="fill:#7a561c;fill-rule:nonzero;"/></g></svg>