<?xml version="1.0" encoding="UTF-8" standalone="no"?>
<svg
   xmlns:dc="http://purl.org/dc/elements/1.1/"
   xmlns:cc="http://creativecommons.org/ns#"
   xmlns:rdf="http://www.w3.org/1999/02/22-rdf-syntax-ns#"
   xmlns:svg="http://www.w3.org/2000/svg"
   xmlns="http://www.w3.org/2000/svg"
   id="svg4488"
   style="fill-rule:evenodd;clip-rule:evenodd;stroke-linejoin:round;stroke-miterlimit:1.41421;"
   xml:space="preserve"
   version="1.1"
   viewBox="0 0 31 30"
   height="100%"
   width="100%"><metadata
     id="metadata4494"><rdf:RDF><cc:Work
         rdf:about=""><dc:format>image/svg+xml</dc:format><dc:type
           rdf:resource="http://purl.org/dc/dcmitype/StillImage" /><dc:title></dc:title></cc:Work></rdf:RDF></metadata><defs
     id="defs4492" /><rect
     style="fill:none;"
     height="30"
     width="30"
     y="0"
     x="0.744"
     id="Discord" /><path
     id="path4486"
     style="fill:#f6efe2;fill-opacity:1"
     d="M25.061,29.301l-18.907,0l1.051,-18.907l-4.202,0.526l-2.1,-5.777l10.503,-3.151c0.919,1.773 2.036,2.56 4.201,2.625c2.167,0 3.283,-0.853 4.202,-2.625l10.503,3.151l-2.1,5.777l-4.202,-0.526l1.051,18.907Zm-9.147,-22.072l-0.768,0.008c0,0 -0.904,0.028 -1.349,0.1c-0.449,0.073 -1.042,0.228 -1.348,0.337c-1.049,0.376 -2.06,0.917 -3.076,2.239c-0.43,0.561 -0.538,1.005 -0.663,1.324c-0.145,0.439 0.35,0.59 0.414,0.554c0.007,-0.113 -0.018,-0.525 0.273,-0.846c0.277,-0.306 0.577,-0.563 0.639,-0.509c0,0 -0.1,0.624 -0.028,0.923c0.088,0.367 0.539,0.956 0.543,0.994c0.064,-0.088 0,-0.452 -0.105,-0.743c-0.171,-0.468 0.019,-0.573 0.109,-0.573c0.126,0 0.092,0.316 0.332,0.828c0.279,0.558 0.627,1.036 0.888,1.197c0.306,0.19 1.044,0.597 0.83,0.36c-0.522,-0.579 -0.724,-0.917 -0.822,-1.238c-0.067,-0.22 0.185,-0.884 0.234,-0.691c0.097,0.379 0.289,1.007 0.668,1.473l0.56,0.69c0,0 -0.394,-1.128 -0.181,-1.541c0.125,-0.241 0.192,-0.731 0.192,-0.731c0,0 0.156,0.402 0.22,0.755c0.017,0.091 0.187,0.471 0.187,0.471c0,0 0.027,-1.28 0.737,-1.051c0,0 0.541,0.181 0.021,0.713c-0.277,0.401 -0.374,0.602 -0.315,0.921c0.058,0.314 0.23,0.636 0.614,0.737c0.242,0.063 0.952,0.118 1.426,0.077c0.42,-0.037 0.861,-0.086 1.231,-0.288c0.352,-0.191 0.766,-0.446 0.864,-0.834c0.082,-0.323 -0.005,-0.642 -0.302,-0.953c-0.457,-0.275 -0.999,-0.172 -1.378,0.224c-0.441,0.46 -0.3,1.067 0.264,1.129c0.187,0.021 0.225,0.008 0.376,-0.13c0.147,-0.135 0.377,-0.536 0.277,-0.485c-0.021,0.011 -0.128,0.057 -0.239,0.104c-0.169,0.071 -0.197,0.1 -0.175,0.185c0.051,0.199 -0.248,0.214 -0.444,0.023c-0.216,-0.21 -0.041,-0.573 0.144,-0.748c0.186,-0.176 0.539,-0.229 0.762,-0.103c0.209,0.117 0.297,0.18 0.287,0.657c-0.237,0.677 -0.884,0.715 -1.603,0.696c-0.673,-0.018 -0.899,-0.582 -0.88,-1.034c0.017,-0.414 0.636,-0.752 0.882,-0.876c0.188,-0.095 -0.102,0.874 -0.102,0.874c0,0 0.684,-0.73 0.776,-1.012c0.016,-0.062 0.09,-0.294 0.392,-0.294c0.237,0 0.732,0.078 0.934,0.34c0.329,0.429 0.143,1.614 0.143,1.614c0,0 0.47,-0.968 0.535,-1.492c0.041,-0.337 -0.1,-1.014 -0.1,-1.014c0,0 0.173,0.014 0.24,0.063c0.097,0.072 0.277,0.217 0.346,0.371c0.124,0.283 0.183,0.533 0.073,0.922c-0.087,0.427 -0.752,1.02 -0.74,1.03c0,0 0.777,-0.461 1.007,-0.696c0.279,-0.285 0.347,-0.536 0.397,-0.871c0.04,-0.261 0.039,-0.66 0.178,-0.66c0.136,0 0.282,-0.078 0.459,0.339c0.098,0.232 -0.064,0.388 0.029,0.641c0,0 0.227,-0.38 0.275,-0.543c0.041,-0.14 0.011,-0.437 0.011,-0.437c0,0 0.124,0.015 0.48,0.22c0.411,0.237 0.679,0.579 0.743,0.792c0,0 -0.066,-0.425 -0.243,-0.768c-0.176,-0.344 -0.419,-0.572 -0.906,-1.207c-0.889,-1.157 -2.398,-1.835 -3.249,-2.204c-0.574,-0.249 -1.121,-0.351 -1.844,-0.356c-0.035,-0.001 -0.08,0 -0.132,0.003Zm-0.422,0.054c0.024,-0.001 0.045,-0.001 0.061,0c0.303,0.022 0.716,0.101 0.975,0.205c0.279,0.11 0.574,0.329 0.662,0.61c0.141,0.455 0.034,1.074 -0.289,1.674c-0.15,0.278 -0.342,0.101 -0.448,0.101c-0.023,0 -0.004,-0.135 -0.022,-0.315c-0.012,-0.112 0,0 -0.038,-0.334c-0.014,-0.131 0.203,-0.234 0.203,-0.234c-0.396,-0.094 -0.233,-0.376 0.056,-0.375c-0.127,-0.252 -0.478,-0.032 -0.555,-0.025c-0.077,0.006 -0.041,-0.242 0.428,-0.227c0,0 -0.154,-0.133 -0.256,-0.175c-0.19,-0.083 -0.499,0.188 -0.505,0.073l0.31,-0.205c0,0 -0.135,-0.098 -0.358,-0.063c-0.119,0.018 -0.261,0.047 -0.349,0.068c0.07,-0.045 0.207,-0.142 0.226,-0.214c0.039,-0.154 -0.635,0.157 -0.635,0.157c-0.163,0.176 -0.316,0.2 -0.426,0.4c-0.052,0.094 -0.094,0.215 -0.094,0.27c0,0.055 -0.063,0.161 -0.139,0.236c-0.116,0.113 -0.135,0.161 -0.111,0.277c0.016,0.078 0.045,0.151 0.064,0.163c0.019,0.012 0.127,-0.04 0.239,-0.114c0.112,-0.074 0.261,-0.135 0.33,-0.136c0.134,-0.001 0.271,-0.144 0.271,-0.284c0,-0.059 0.036,-0.081 0.136,-0.081c0.177,0 0.33,0.184 0.33,0.398c0,0.178 -0.171,0.366 -0.47,0.515c-0.096,0.047 -0.238,0.162 -0.317,0.255l-0.143,0.17l-0.236,-0.108c-0.299,-0.137 -0.503,0.058 -0.653,-0.261c-0.232,-0.495 -0.349,-1.011 -0.064,-1.556c0.149,-0.285 0.768,-0.693 1.817,-0.865Zm-0.581,1.266c0.014,0.001 0.028,0.003 0.041,0.007c0.013,0.003 0.025,0.007 0.036,0.012c0.011,0.004 0.022,0.009 0.029,0.014c0.008,0.005 0.012,0.009 0.013,0.012c0.001,0.003 -0.002,0.005 -0.006,0.006c-0.003,0.002 -0.008,0.003 -0.012,0.005c-0.005,0.002 -0.01,0.006 -0.015,0.009c-0.005,0.003 -0.009,0.005 -0.013,0.011c-0.005,0.005 -0.009,0.013 -0.013,0.021c-0.004,0.008 -0.007,0.016 -0.009,0.024c-0.003,0.007 -0.005,0.014 -0.009,0.022c-0.005,0.007 -0.012,0.017 -0.017,0.023c-0.005,0.006 -0.008,0.009 -0.013,0.014c-0.004,0.004 -0.01,0.01 -0.016,0.014c-0.006,0.004 -0.011,0.008 -0.018,0.012c-0.007,0.003 -0.015,0.008 -0.022,0.011c-0.007,0.004 -0.014,0.007 -0.02,0.009c-0.007,0.002 -0.013,0.004 -0.019,0.006c-0.006,0.002 -0.013,0.004 -0.019,0.005c-0.007,0.001 -0.014,0.001 -0.021,0.001c-0.007,0 -0.013,0 -0.019,0c-0.006,-0.001 -0.011,-0.001 -0.017,-0.001c-0.006,-0.001 -0.013,-0.001 -0.018,-0.001c-0.006,0 -0.011,0 -0.016,0.001c-0.005,0 -0.01,0.001 -0.015,0.002c-0.006,0.001 -0.012,0.003 -0.017,0.004c-0.005,0.002 -0.009,0.004 -0.012,0.004c-0.002,0.001 -0.002,0.001 -0.004,-0.003c-0.001,-0.004 -0.003,-0.011 -0.004,-0.02c-0.001,-0.009 -0.001,-0.019 0.001,-0.03c0.002,-0.011 0.005,-0.025 0.01,-0.036c0.004,-0.012 0.008,-0.022 0.013,-0.032c0.005,-0.009 0.01,-0.017 0.014,-0.024c0.005,-0.007 0.009,-0.014 0.014,-0.019c0.005,-0.006 0.01,-0.012 0.017,-0.018c0.007,-0.007 0.016,-0.014 0.025,-0.02c0.008,-0.006 0.017,-0.011 0.029,-0.017c0.011,-0.006 0.025,-0.012 0.039,-0.017c0.015,-0.005 0.03,-0.009 0.044,-0.011c0.014,-0.001 0.026,-0.002 0.039,0l0,0Zm1.003,-1.32l0,0c-0.147,0.013 -0.288,0.032 -0.422,0.054c-0.064,0.001 -0.15,0.006 -0.216,0.01c-0.052,0.003 -0.091,0.006 -0.098,0.005c-0.078,-0.004 0.435,-0.055 0.736,-0.069Z" /></svg>