<?xml version="1.0" encoding="UTF-8" standalone="no"?><!DOCTYPE svg PUBLIC "-//W3C//DTD SVG 1.1//EN" "http://www.w3.org/Graphics/SVG/1.1/DTD/svg11.dtd"><svg width="30px" height="27px" version="1.1" xmlns="http://www.w3.org/2000/svg" xmlns:xlink="http://www.w3.org/1999/xlink" xml:space="preserve" style="fill-rule:evenodd;clip-rule:evenodd;stroke-linecap:round;stroke-linejoin:round;stroke-miterlimit:1.5;"><rect id="Wiki2" x="0" y="0" width="30" height="26.496" style="fill:none;"/><g><g><path d="M2.483,6.756c-0.786,0.402 -1.28,1.423 -1.515,2.172c-0.233,0.74 -0.209,1.613 0.101,2.324c0.336,0.775 1.92,2.325 1.92,2.325l6.975,6.114l4.646,3.789c0,0 1.153,1.019 1.819,1.111c0.665,0.093 1.531,-0.171 2.172,-0.555c0.927,-0.556 3.386,-2.779 3.386,-2.779l2.374,-1.971l3.335,-2.88c0,0 -0.926,-0.823 -0.96,-1.364c-0.023,-0.366 -0.244,-1.024 -0.092,-1.746c0.183,-0.872 0.635,-1.911 0.635,-1.911l-3.625,-2.154c0,0 -1.94,-1.132 -2.779,-1.869c-0.968,-0.851 -3.032,-3.234 -3.032,-3.234l-2.475,-3.436c0,0 -3.71,2.852 -5.811,3.84c-2.147,1.011 -5.642,1.491 -7.074,2.224Z" style="fill:#7a561c;"/><path d="M2.492,6.881c0,0 -0.601,0.187 -0.916,0.568c-0.445,0.539 -0.663,1.379 -0.782,1.88c-0.337,1.419 0.852,2.958 0.852,2.958l5.693,5.206l7.101,5.836l0.153,-1.876l1.415,-1.297l-5.137,-4.75l-4.624,-4.484l-3.755,-4.041Z" style="fill:#7a561c;"/><path d="M16.373,19.978l-1.045,0.832l-0.513,0.785l-0.088,1.486l0.903,0.859l1.398,0.699l0.991,-0.233l0.728,-0.393l-1.224,-0.685l-0.815,-1.238l-0.408,-1.223l0.073,-0.889Z" style="fill:#7a561c;"/><path d="M27.253,11.493c0,0 -0.065,0.135 -0.711,0.853c-1.041,1.156 -2.957,3.191 -3.786,3.858c-1.035,0.832 -2.49,1.098 -3.569,1.772c-1.042,0.65 -2.62,1.453 -2.905,2.268c-0.285,0.816 0.862,2.035 1.194,2.624c0.199,0.353 0.541,0.754 0.8,0.913c0.121,0.076 0.374,0.235 0.529,0.241c0.118,0.004 0.22,-0.135 0.283,-0.224c0.315,-0.452 1.341,-1.937 2.218,-2.642c0.608,-0.489 2.152,-1.239 3.397,-2.095c1.832,-1.261 3.386,-2.618 3.386,-2.618c0,0 -1.325,-0.735 -1.436,-1.393c-0.14,-0.825 0.6,-3.557 0.6,-3.557Z" style="fill:#fff;"/><path d="M2.483,6.756c-0.786,0.402 -1.28,1.423 -1.515,2.172c-0.233,0.74 -0.209,1.613 0.101,2.324c0.336,0.775 1.92,2.325 1.92,2.325l6.975,6.114l4.646,3.789c0,0 1.153,1.019 1.819,1.111c0.665,0.093 1.531,-0.171 2.172,-0.555c0.927,-0.556 3.386,-2.779 3.386,-2.779l2.374,-1.971l3.555,-2.837c0,0 -1.146,-0.866 -1.18,-1.407c-0.023,-0.366 -0.244,-1.024 -0.092,-1.746c0.183,-0.872 0.635,-1.911 0.635,-1.911l-3.625,-2.154c0,0 -1.94,-1.132 -2.779,-1.869c-0.968,-0.851 -3.032,-3.234 -3.032,-3.234l-2.475,-3.436c0,0 -3.71,2.852 -5.811,3.84c-2.147,1.011 -5.642,1.491 -7.074,2.224Z" style="fill:none;stroke:#f1e2c3;stroke-width:0.16px;"/><path d="M17.721,22.234c0,0 0.698,-1.207 1.252,-1.593c0.626,-0.436 1.704,-0.607 2.503,-1.024c0.844,-0.441 1.771,-0.991 2.56,-1.622c0.801,-0.64 2.247,-2.218 2.247,-2.218c0,0 -1.272,1.909 -2.133,2.645c-0.877,0.749 -2.342,1.432 -3.129,1.849c-0.507,0.269 -1.1,0.361 -1.593,0.654c-0.55,0.327 -1.707,1.309 -1.707,1.309Z" style="fill:#f1e2c3;"/><path d="M27.23,11.511c0,0 -0.598,1.038 -0.801,1.973c-0.06,0.278 0.013,0.905 0.008,0.969c-0.037,0.447 0.171,0.937 0.446,1.269c0.275,0.332 1.202,0.724 1.202,0.724c0,0 -0.637,-0.511 -0.825,-0.861c-0.206,-0.384 -0.408,-0.942 -0.411,-1.441c-0.005,-0.679 0.381,-2.633 0.381,-2.633Z" style="fill:#f1e2c3;"/><path d="M19.131,23.817c0,0 0.636,-1.368 1.132,-1.921c0.497,-0.554 1.217,-0.962 1.852,-1.406c0.663,-0.463 1.428,-0.9 2.127,-1.372c0.995,-0.672 3.846,-2.658 3.846,-2.658c0,0 -1.49,1.603 -2.268,2.246c-0.743,0.614 -1.62,1.048 -2.401,1.612c-0.787,0.568 -1.576,1.096 -2.319,1.793c-0.65,0.609 -1.969,1.706 -1.969,1.706Z" style="fill:#f1e2c3;"/><path d="M16.25,20.764c0,0 0.291,1.292 0.617,1.818c0.326,0.526 0.99,1.264 1.338,1.338c0.437,0.093 0.652,0.103 0.652,0.103c0,0 -0.544,-0.418 -0.789,-0.652c-0.246,-0.234 -0.492,-0.476 -0.686,-0.755c-0.303,-0.434 -1.132,-1.852 -1.132,-1.852Z" style="fill:#f1e2c3;"/><path d="M16.524,20.73c0,0 1.518,-0.917 2.298,-1.338c1.006,-0.543 2.659,-1.229 3.739,-1.921c0.993,-0.635 2.144,-1.761 2.744,-2.229c0.273,-0.213 0.858,-0.583 0.858,-0.583c0,0 -0.574,1.155 -1.064,1.543c-0.88,0.698 -2.972,1.91 -4.219,2.641c-1.063,0.625 -2.532,1.435 -3.258,1.75c-0.339,0.146 -1.098,0.137 -1.098,0.137Z" style="fill:#f1e2c3;"/><path d="M2.736,7.109c0,0 4.354,5.162 5.76,6.569c0.77,0.77 1.865,1.146 2.678,1.869c1.145,1.019 4.194,4.244 4.194,4.244c0,0 -2.03,-3.124 -3.032,-4.193c-0.848,-0.905 -2.139,-1.524 -2.981,-2.223c-0.733,-0.609 -2.072,-1.971 -2.072,-1.971l-4.547,-4.295Z" style="fill:#f1e2c3;"/><path d="M27.343,11.404c0,0 -3.15,3.166 -4.7,4.295c-1.407,1.025 -3.486,1.744 -4.597,2.476c-0.785,0.516 -2.071,1.912 -2.071,1.912c0,0 -1.045,0.467 -1.264,0.945c-0.248,0.541 -0.618,1.703 -0.225,2.302c0.191,0.291 1.105,0.928 1.689,1.178c0.615,0.264 0.896,0.133 0.896,0.133c0,0 -1.998,-0.878 -2.164,-1.493c-0.248,-0.923 -0.265,-1.031 0.172,-1.822c0.255,-0.461 0.496,-0.396 1.027,-0.999c0.542,-0.617 1.287,-1.208 1.889,-1.601c1.191,-0.777 2.762,-1.069 3.891,-1.768c1.066,-0.661 2,-1.53 2.88,-2.425c0.909,-0.927 2.577,-3.133 2.577,-3.133Z" style="fill:#f1e2c3;"/><g transform="matrix(0.14873,-0.10538,0.0973865,0.137447,-1.6801,14.6795)"><text x="60.906px" y="49.149px" style="font-family:'Mason-Regular', 'Mason';font-size:32.083px;fill:none;">W<tspan x="93.951px " y="49.149px ">A</tspan></text><text x="60.906px" y="49.149px" style="font-family:'Mason-Regular', 'Mason';font-size:32.083px;fill:#f1e2c3;">W<tspan x="93.951px " y="49.149px ">A</tspan></text></g></g></g></svg>